<?xml version="1.0" encoding="UTF-8"?>
<svg width="280px" height="56px" viewBox="0 0 280 56" version="1.1" xmlns="http://www.w3.org/2000/svg" xmlns:xlink="http://www.w3.org/1999/xlink">
    <title>左边</title>
    <g id="组件" stroke="none" stroke-width="1" fill="none" fill-rule="evenodd">
        <g id="左边">
            <rect id="板块背景" x="0" y="0" width="280" height="56"></rect>
            <path d="M67.5032295,48 C43.195906,48 20.2526213,42.1598552 0,31.80619 L0.002,0 L176.829423,0 C149.689064,29.5086339 110.755592,48 67.5032295,48 Z" id="路径" fill-opacity="0.04" fill="#FFFFFF"></path>
            <path d="M207.00323,30 C207.555514,30 208.00323,30.4477153 208.00323,31 C208.00323,31.5522847 207.555514,32 207.00323,32 C206.450945,32 206.00323,31.5522847 206.00323,31 C206.00323,30.4477153 206.450945,30 207.00323,30 Z M204.00323,30 C204.555514,30 205.00323,30.4477153 205.00323,31 C205.00323,31.5522847 204.555514,32 204.00323,32 C203.450945,32 203.00323,31.5522847 203.00323,31 C203.00323,30.4477153 203.450945,30 204.00323,30 Z M201.00323,30 C201.555514,30 202.00323,30.4477153 202.00323,31 C202.00323,31.5522847 201.555514,32 201.00323,32 C200.450945,32 200.00323,31.5522847 200.00323,31 C200.00323,30.4477153 200.450945,30 201.00323,30 Z M198.00323,30 C198.555514,30 199.00323,30.4477153 199.00323,31 C199.00323,31.5522847 198.555514,32 198.00323,32 C197.450945,32 197.00323,31.5522847 197.00323,31 C197.00323,30.4477153 197.450945,30 198.00323,30 Z M195.00323,30 C195.555514,30 196.00323,30.4477153 196.00323,31 C196.00323,31.5522847 195.555514,32 195.00323,32 C194.450945,32 194.00323,31.5522847 194.00323,31 C194.00323,30.4477153 194.450945,30 195.00323,30 Z M192.00323,30 C192.555514,30 193.00323,30.4477153 193.00323,31 C193.00323,31.5522847 192.555514,32 192.00323,32 C191.450945,32 191.00323,31.5522847 191.00323,31 C191.00323,30.4477153 191.450945,30 192.00323,30 Z M189.00323,30 C189.555514,30 190.00323,30.4477153 190.00323,31 C190.00323,31.5522847 189.555514,32 189.00323,32 C188.450945,32 188.00323,31.5522847 188.00323,31 C188.00323,30.4477153 188.450945,30 189.00323,30 Z M180.00323,27 C180.555514,27 181.00323,27.4477153 181.00323,28 C181.00323,28.5522847 180.555514,29 180.00323,29 C179.450945,29 179.00323,28.5522847 179.00323,28 C179.00323,27.4477153 179.450945,27 180.00323,27 Z M183.00323,27 C183.555514,27 184.00323,27.4477153 184.00323,28 C184.00323,28.5522847 183.555514,29 183.00323,29 C182.450945,29 182.00323,28.5522847 182.00323,28 C182.00323,27.4477153 182.450945,27 183.00323,27 Z M186.00323,27 C186.555514,27 187.00323,27.4477153 187.00323,28 C187.00323,28.5522847 186.555514,29 186.00323,29 C185.450945,29 185.00323,28.5522847 185.00323,28 C185.00323,27.4477153 185.450945,27 186.00323,27 Z M189.00323,27 C189.555514,27 190.00323,27.4477153 190.00323,28 C190.00323,28.5522847 189.555514,29 189.00323,29 C188.450945,29 188.00323,28.5522847 188.00323,28 C188.00323,27.4477153 188.450945,27 189.00323,27 Z M192.00323,27 C192.555514,27 193.00323,27.4477153 193.00323,28 C193.00323,28.5522847 192.555514,29 192.00323,29 C191.450945,29 191.00323,28.5522847 191.00323,28 C191.00323,27.4477153 191.450945,27 192.00323,27 Z M195.00323,27 C195.555514,27 196.00323,27.4477153 196.00323,28 C196.00323,28.5522847 195.555514,29 195.00323,29 C194.450945,29 194.00323,28.5522847 194.00323,28 C194.00323,27.4477153 194.450945,27 195.00323,27 Z M198.00323,27 C198.555514,27 199.00323,27.4477153 199.00323,28 C199.00323,28.5522847 198.555514,29 198.00323,29 C197.450945,29 197.00323,28.5522847 197.00323,28 C197.00323,27.4477153 197.450945,27 198.00323,27 Z M201.00323,27 C201.555514,27 202.00323,27.4477153 202.00323,28 C202.00323,28.5522847 201.555514,29 201.00323,29 C200.450945,29 200.00323,28.5522847 200.00323,28 C200.00323,27.4477153 200.450945,27 201.00323,27 Z M204.00323,27 C204.555514,27 205.00323,27.4477153 205.00323,28 C205.00323,28.5522847 204.555514,29 204.00323,29 C203.450945,29 203.00323,28.5522847 203.00323,28 C203.00323,27.4477153 203.450945,27 204.00323,27 Z M207.00323,27 C207.555514,27 208.00323,27.4477153 208.00323,28 C208.00323,28.5522847 207.555514,29 207.00323,29 C206.450945,29 206.00323,28.5522847 206.00323,28 C206.00323,27.4477153 206.450945,27 207.00323,27 Z M210.00323,27 C210.555514,27 211.00323,27.4477153 211.00323,28 C211.00323,28.5522847 210.555514,29 210.00323,29 C209.450945,29 209.00323,28.5522847 209.00323,28 C209.00323,27.4477153 209.450945,27 210.00323,27 Z M213.00323,27 C213.555514,27 214.00323,27.4477153 214.00323,28 C214.00323,28.5522847 213.555514,29 213.00323,29 C212.450945,29 212.00323,28.5522847 212.00323,28 C212.00323,27.4477153 212.450945,27 213.00323,27 Z M216.00323,27 C216.555514,27 217.00323,27.4477153 217.00323,28 C217.00323,28.5522847 216.555514,29 216.00323,29 C215.450945,29 215.00323,28.5522847 215.00323,28 C215.00323,27.4477153 215.450945,27 216.00323,27 Z M219.00323,24 C219.555514,24 220.00323,24.4477153 220.00323,25 C220.00323,25.5522847 219.555514,26 219.00323,26 C218.450945,26 218.00323,25.5522847 218.00323,25 C218.00323,24.4477153 218.450945,24 219.00323,24 Z M216.00323,24 C216.555514,24 217.00323,24.4477153 217.00323,25 C217.00323,25.5522847 216.555514,26 216.00323,26 C215.450945,26 215.00323,25.5522847 215.00323,25 C215.00323,24.4477153 215.450945,24 216.00323,24 Z M213.00323,24 C213.555514,24 214.00323,24.4477153 214.00323,25 C214.00323,25.5522847 213.555514,26 213.00323,26 C212.450945,26 212.00323,25.5522847 212.00323,25 C212.00323,24.4477153 212.450945,24 213.00323,24 Z M210.00323,24 C210.555514,24 211.00323,24.4477153 211.00323,25 C211.00323,25.5522847 210.555514,26 210.00323,26 C209.450945,26 209.00323,25.5522847 209.00323,25 C209.00323,24.4477153 209.450945,24 210.00323,24 Z M207.00323,24 C207.555514,24 208.00323,24.4477153 208.00323,25 C208.00323,25.5522847 207.555514,26 207.00323,26 C206.450945,26 206.00323,25.5522847 206.00323,25 C206.00323,24.4477153 206.450945,24 207.00323,24 Z M204.00323,24 C204.555514,24 205.00323,24.4477153 205.00323,25 C205.00323,25.5522847 204.555514,26 204.00323,26 C203.450945,26 203.00323,25.5522847 203.00323,25 C203.00323,24.4477153 203.450945,24 204.00323,24 Z M201.00323,24 C201.555514,24 202.00323,24.4477153 202.00323,25 C202.00323,25.5522847 201.555514,26 201.00323,26 C200.450945,26 200.00323,25.5522847 200.00323,25 C200.00323,24.4477153 200.450945,24 201.00323,24 Z M198.00323,24 C198.555514,24 199.00323,24.4477153 199.00323,25 C199.00323,25.5522847 198.555514,26 198.00323,26 C197.450945,26 197.00323,25.5522847 197.00323,25 C197.00323,24.4477153 197.450945,24 198.00323,24 Z M195.00323,24 C195.555514,24 196.00323,24.4477153 196.00323,25 C196.00323,25.5522847 195.555514,26 195.00323,26 C194.450945,26 194.00323,25.5522847 194.00323,25 C194.00323,24.4477153 194.450945,24 195.00323,24 Z M192.00323,24 C192.555514,24 193.00323,24.4477153 193.00323,25 C193.00323,25.5522847 192.555514,26 192.00323,26 C191.450945,26 191.00323,25.5522847 191.00323,25 C191.00323,24.4477153 191.450945,24 192.00323,24 Z M189.00323,24 C189.555514,24 190.00323,24.4477153 190.00323,25 C190.00323,25.5522847 189.555514,26 189.00323,26 C188.450945,26 188.00323,25.5522847 188.00323,25 C188.00323,24.4477153 188.450945,24 189.00323,24 Z M186.00323,24 C186.555514,24 187.00323,24.4477153 187.00323,25 C187.00323,25.5522847 186.555514,26 186.00323,26 C185.450945,26 185.00323,25.5522847 185.00323,25 C185.00323,24.4477153 185.450945,24 186.00323,24 Z M183.00323,24 C183.555514,24 184.00323,24.4477153 184.00323,25 C184.00323,25.5522847 183.555514,26 183.00323,26 C182.450945,26 182.00323,25.5522847 182.00323,25 C182.00323,24.4477153 182.450945,24 183.00323,24 Z M180.00323,24 C180.555514,24 181.00323,24.4477153 181.00323,25 C181.00323,25.5522847 180.555514,26 180.00323,26 C179.450945,26 179.00323,25.5522847 179.00323,25 C179.00323,24.4477153 179.450945,24 180.00323,24 Z M177.00323,24 C177.555514,24 178.00323,24.4477153 178.00323,25 C178.00323,25.5522847 177.555514,26 177.00323,26 C176.450945,26 176.00323,25.5522847 176.00323,25 C176.00323,24.4477153 176.450945,24 177.00323,24 Z M174.00323,21 C174.555514,21 175.00323,21.4477153 175.00323,22 C175.00323,22.5522847 174.555514,23 174.00323,23 C173.450945,23 173.00323,22.5522847 173.00323,22 C173.00323,21.4477153 173.450945,21 174.00323,21 Z M177.00323,21 C177.555514,21 178.00323,21.4477153 178.00323,22 C178.00323,22.5522847 177.555514,23 177.00323,23 C176.450945,23 176.00323,22.5522847 176.00323,22 C176.00323,21.4477153 176.450945,21 177.00323,21 Z M180.00323,21 C180.555514,21 181.00323,21.4477153 181.00323,22 C181.00323,22.5522847 180.555514,23 180.00323,23 C179.450945,23 179.00323,22.5522847 179.00323,22 C179.00323,21.4477153 179.450945,21 180.00323,21 Z M183.00323,21 C183.555514,21 184.00323,21.4477153 184.00323,22 C184.00323,22.5522847 183.555514,23 183.00323,23 C182.450945,23 182.00323,22.5522847 182.00323,22 C182.00323,21.4477153 182.450945,21 183.00323,21 Z M186.00323,21 C186.555514,21 187.00323,21.4477153 187.00323,22 C187.00323,22.5522847 186.555514,23 186.00323,23 C185.450945,23 185.00323,22.5522847 185.00323,22 C185.00323,21.4477153 185.450945,21 186.00323,21 Z M189.00323,21 C189.555514,21 190.00323,21.4477153 190.00323,22 C190.00323,22.5522847 189.555514,23 189.00323,23 C188.450945,23 188.00323,22.5522847 188.00323,22 C188.00323,21.4477153 188.450945,21 189.00323,21 Z M192.00323,21 C192.555514,21 193.00323,21.4477153 193.00323,22 C193.00323,22.5522847 192.555514,23 192.00323,23 C191.450945,23 191.00323,22.5522847 191.00323,22 C191.00323,21.4477153 191.450945,21 192.00323,21 Z M195.00323,21 C195.555514,21 196.00323,21.4477153 196.00323,22 C196.00323,22.5522847 195.555514,23 195.00323,23 C194.450945,23 194.00323,22.5522847 194.00323,22 C194.00323,21.4477153 194.450945,21 195.00323,21 Z M198.00323,21 C198.555514,21 199.00323,21.4477153 199.00323,22 C199.00323,22.5522847 198.555514,23 198.00323,23 C197.450945,23 197.00323,22.5522847 197.00323,22 C197.00323,21.4477153 197.450945,21 198.00323,21 Z M201.00323,21 C201.555514,21 202.00323,21.4477153 202.00323,22 C202.00323,22.5522847 201.555514,23 201.00323,23 C200.450945,23 200.00323,22.5522847 200.00323,22 C200.00323,21.4477153 200.450945,21 201.00323,21 Z M204.00323,21 C204.555514,21 205.00323,21.4477153 205.00323,22 C205.00323,22.5522847 204.555514,23 204.00323,23 C203.450945,23 203.00323,22.5522847 203.00323,22 C203.00323,21.4477153 203.450945,21 204.00323,21 Z M207.00323,21 C207.555514,21 208.00323,21.4477153 208.00323,22 C208.00323,22.5522847 207.555514,23 207.00323,23 C206.450945,23 206.00323,22.5522847 206.00323,22 C206.00323,21.4477153 206.450945,21 207.00323,21 Z M210.00323,21 C210.555514,21 211.00323,21.4477153 211.00323,22 C211.00323,22.5522847 210.555514,23 210.00323,23 C209.450945,23 209.00323,22.5522847 209.00323,22 C209.00323,21.4477153 209.450945,21 210.00323,21 Z M213.00323,21 C213.555514,21 214.00323,21.4477153 214.00323,22 C214.00323,22.5522847 213.555514,23 213.00323,23 C212.450945,23 212.00323,22.5522847 212.00323,22 C212.00323,21.4477153 212.450945,21 213.00323,21 Z M216.00323,21 C216.555514,21 217.00323,21.4477153 217.00323,22 C217.00323,22.5522847 216.555514,23 216.00323,23 C215.450945,23 215.00323,22.5522847 215.00323,22 C215.00323,21.4477153 215.450945,21 216.00323,21 Z M219.00323,21 C219.555514,21 220.00323,21.4477153 220.00323,22 C220.00323,22.5522847 219.555514,23 219.00323,23 C218.450945,23 218.00323,22.5522847 218.00323,22 C218.00323,21.4477153 218.450945,21 219.00323,21 Z M222.00323,21 C222.555514,21 223.00323,21.4477153 223.00323,22 C223.00323,22.5522847 222.555514,23 222.00323,23 C221.450945,23 221.00323,22.5522847 221.00323,22 C221.00323,21.4477153 221.450945,21 222.00323,21 Z M171.00323,18 C171.555514,18 172.00323,18.4477153 172.00323,19 C172.00323,19.5522847 171.555514,20 171.00323,20 C170.450945,20 170.00323,19.5522847 170.00323,19 C170.00323,18.4477153 170.450945,18 171.00323,18 Z M174.00323,18 C174.555514,18 175.00323,18.4477153 175.00323,19 C175.00323,19.5522847 174.555514,20 174.00323,20 C173.450945,20 173.00323,19.5522847 173.00323,19 C173.00323,18.4477153 173.450945,18 174.00323,18 Z M177.00323,18 C177.555514,18 178.00323,18.4477153 178.00323,19 C178.00323,19.5522847 177.555514,20 177.00323,20 C176.450945,20 176.00323,19.5522847 176.00323,19 C176.00323,18.4477153 176.450945,18 177.00323,18 Z M180.00323,18 C180.555514,18 181.00323,18.4477153 181.00323,19 C181.00323,19.5522847 180.555514,20 180.00323,20 C179.450945,20 179.00323,19.5522847 179.00323,19 C179.00323,18.4477153 179.450945,18 180.00323,18 Z M183.00323,18 C183.555514,18 184.00323,18.4477153 184.00323,19 C184.00323,19.5522847 183.555514,20 183.00323,20 C182.450945,20 182.00323,19.5522847 182.00323,19 C182.00323,18.4477153 182.450945,18 183.00323,18 Z M186.00323,18 C186.555514,18 187.00323,18.4477153 187.00323,19 C187.00323,19.5522847 186.555514,20 186.00323,20 C185.450945,20 185.00323,19.5522847 185.00323,19 C185.00323,18.4477153 185.450945,18 186.00323,18 Z M189.00323,18 C189.555514,18 190.00323,18.4477153 190.00323,19 C190.00323,19.5522847 189.555514,20 189.00323,20 C188.450945,20 188.00323,19.5522847 188.00323,19 C188.00323,18.4477153 188.450945,18 189.00323,18 Z M192.00323,18 C192.555514,18 193.00323,18.4477153 193.00323,19 C193.00323,19.5522847 192.555514,20 192.00323,20 C191.450945,20 191.00323,19.5522847 191.00323,19 C191.00323,18.4477153 191.450945,18 192.00323,18 Z M195.00323,18 C195.555514,18 196.00323,18.4477153 196.00323,19 C196.00323,19.5522847 195.555514,20 195.00323,20 C194.450945,20 194.00323,19.5522847 194.00323,19 C194.00323,18.4477153 194.450945,18 195.00323,18 Z M198.00323,18 C198.555514,18 199.00323,18.4477153 199.00323,19 C199.00323,19.5522847 198.555514,20 198.00323,20 C197.450945,20 197.00323,19.5522847 197.00323,19 C197.00323,18.4477153 197.450945,18 198.00323,18 Z M201.00323,18 C201.555514,18 202.00323,18.4477153 202.00323,19 C202.00323,19.5522847 201.555514,20 201.00323,20 C200.450945,20 200.00323,19.5522847 200.00323,19 C200.00323,18.4477153 200.450945,18 201.00323,18 Z M204.00323,18 C204.555514,18 205.00323,18.4477153 205.00323,19 C205.00323,19.5522847 204.555514,20 204.00323,20 C203.450945,20 203.00323,19.5522847 203.00323,19 C203.00323,18.4477153 203.450945,18 204.00323,18 Z M207.00323,18 C207.555514,18 208.00323,18.4477153 208.00323,19 C208.00323,19.5522847 207.555514,20 207.00323,20 C206.450945,20 206.00323,19.5522847 206.00323,19 C206.00323,18.4477153 206.450945,18 207.00323,18 Z M210.00323,18 C210.555514,18 211.00323,18.4477153 211.00323,19 C211.00323,19.5522847 210.555514,20 210.00323,20 C209.450945,20 209.00323,19.5522847 209.00323,19 C209.00323,18.4477153 209.450945,18 210.00323,18 Z M213.00323,18 C213.555514,18 214.00323,18.4477153 214.00323,19 C214.00323,19.5522847 213.555514,20 213.00323,20 C212.450945,20 212.00323,19.5522847 212.00323,19 C212.00323,18.4477153 212.450945,18 213.00323,18 Z M216.00323,18 C216.555514,18 217.00323,18.4477153 217.00323,19 C217.00323,19.5522847 216.555514,20 216.00323,20 C215.450945,20 215.00323,19.5522847 215.00323,19 C215.00323,18.4477153 215.450945,18 216.00323,18 Z M219.00323,18 C219.555514,18 220.00323,18.4477153 220.00323,19 C220.00323,19.5522847 219.555514,20 219.00323,20 C218.450945,20 218.00323,19.5522847 218.00323,19 C218.00323,18.4477153 218.450945,18 219.00323,18 Z M222.00323,18 C222.555514,18 223.00323,18.4477153 223.00323,19 C223.00323,19.5522847 222.555514,20 222.00323,20 C221.450945,20 221.00323,19.5522847 221.00323,19 C221.00323,18.4477153 221.450945,18 222.00323,18 Z M225.00323,18 C225.555514,18 226.00323,18.4477153 226.00323,19 C226.00323,19.5522847 225.555514,20 225.00323,20 C224.450945,20 224.00323,19.5522847 224.00323,19 C224.00323,18.4477153 224.450945,18 225.00323,18 Z M228.00323,15 C228.555514,15 229.00323,15.4477153 229.00323,16 C229.00323,16.5522847 228.555514,17 228.00323,17 C227.450945,17 227.00323,16.5522847 227.00323,16 C227.00323,15.4477153 227.450945,15 228.00323,15 Z M225.00323,15 C225.555514,15 226.00323,15.4477153 226.00323,16 C226.00323,16.5522847 225.555514,17 225.00323,17 C224.450945,17 224.00323,16.5522847 224.00323,16 C224.00323,15.4477153 224.450945,15 225.00323,15 Z M222.00323,15 C222.555514,15 223.00323,15.4477153 223.00323,16 C223.00323,16.5522847 222.555514,17 222.00323,17 C221.450945,17 221.00323,16.5522847 221.00323,16 C221.00323,15.4477153 221.450945,15 222.00323,15 Z M219.00323,15 C219.555514,15 220.00323,15.4477153 220.00323,16 C220.00323,16.5522847 219.555514,17 219.00323,17 C218.450945,17 218.00323,16.5522847 218.00323,16 C218.00323,15.4477153 218.450945,15 219.00323,15 Z M216.00323,15 C216.555514,15 217.00323,15.4477153 217.00323,16 C217.00323,16.5522847 216.555514,17 216.00323,17 C215.450945,17 215.00323,16.5522847 215.00323,16 C215.00323,15.4477153 215.450945,15 216.00323,15 Z M213.00323,15 C213.555514,15 214.00323,15.4477153 214.00323,16 C214.00323,16.5522847 213.555514,17 213.00323,17 C212.450945,17 212.00323,16.5522847 212.00323,16 C212.00323,15.4477153 212.450945,15 213.00323,15 Z M210.00323,15 C210.555514,15 211.00323,15.4477153 211.00323,16 C211.00323,16.5522847 210.555514,17 210.00323,17 C209.450945,17 209.00323,16.5522847 209.00323,16 C209.00323,15.4477153 209.450945,15 210.00323,15 Z M207.00323,15 C207.555514,15 208.00323,15.4477153 208.00323,16 C208.00323,16.5522847 207.555514,17 207.00323,17 C206.450945,17 206.00323,16.5522847 206.00323,16 C206.00323,15.4477153 206.450945,15 207.00323,15 Z M204.00323,15 C204.555514,15 205.00323,15.4477153 205.00323,16 C205.00323,16.5522847 204.555514,17 204.00323,17 C203.450945,17 203.00323,16.5522847 203.00323,16 C203.00323,15.4477153 203.450945,15 204.00323,15 Z M201.00323,15 C201.555514,15 202.00323,15.4477153 202.00323,16 C202.00323,16.5522847 201.555514,17 201.00323,17 C200.450945,17 200.00323,16.5522847 200.00323,16 C200.00323,15.4477153 200.450945,15 201.00323,15 Z M195.00323,15 C195.555514,15 196.00323,15.4477153 196.00323,16 C196.00323,16.5522847 195.555514,17 195.00323,17 C194.450945,17 194.00323,16.5522847 194.00323,16 C194.00323,15.4477153 194.450945,15 195.00323,15 Z M192.00323,15 C192.555514,15 193.00323,15.4477153 193.00323,16 C193.00323,16.5522847 192.555514,17 192.00323,17 C191.450945,17 191.00323,16.5522847 191.00323,16 C191.00323,15.4477153 191.450945,15 192.00323,15 Z M189.00323,15 C189.555514,15 190.00323,15.4477153 190.00323,16 C190.00323,16.5522847 189.555514,17 189.00323,17 C188.450945,17 188.00323,16.5522847 188.00323,16 C188.00323,15.4477153 188.450945,15 189.00323,15 Z M186.00323,15 C186.555514,15 187.00323,15.4477153 187.00323,16 C187.00323,16.5522847 186.555514,17 186.00323,17 C185.450945,17 185.00323,16.5522847 185.00323,16 C185.00323,15.4477153 185.450945,15 186.00323,15 Z M183.00323,15 C183.555514,15 184.00323,15.4477153 184.00323,16 C184.00323,16.5522847 183.555514,17 183.00323,17 C182.450945,17 182.00323,16.5522847 182.00323,16 C182.00323,15.4477153 182.450945,15 183.00323,15 Z M180.00323,15 C180.555514,15 181.00323,15.4477153 181.00323,16 C181.00323,16.5522847 180.555514,17 180.00323,17 C179.450945,17 179.00323,16.5522847 179.00323,16 C179.00323,15.4477153 179.450945,15 180.00323,15 Z M177.00323,15 C177.555514,15 178.00323,15.4477153 178.00323,16 C178.00323,16.5522847 177.555514,17 177.00323,17 C176.450945,17 176.00323,16.5522847 176.00323,16 C176.00323,15.4477153 176.450945,15 177.00323,15 Z M174.00323,15 C174.555514,15 175.00323,15.4477153 175.00323,16 C175.00323,16.5522847 174.555514,17 174.00323,17 C173.450945,17 173.00323,16.5522847 173.00323,16 C173.00323,15.4477153 173.450945,15 174.00323,15 Z M171.00323,15 C171.555514,15 172.00323,15.4477153 172.00323,16 C172.00323,16.5522847 171.555514,17 171.00323,17 C170.450945,17 170.00323,16.5522847 170.00323,16 C170.00323,15.4477153 170.450945,15 171.00323,15 Z M168.00323,15 C168.555514,15 169.00323,15.4477153 169.00323,16 C169.00323,16.5522847 168.555514,17 168.00323,17 C167.450945,17 167.00323,16.5522847 167.00323,16 C167.00323,15.4477153 167.450945,15 168.00323,15 Z M198.00323,15 C198.555514,15 199.00323,15.4477153 199.00323,16 C199.00323,16.5522847 198.555514,17 198.00323,17 C197.450945,17 197.00323,16.5522847 197.00323,16 C197.00323,15.4477153 197.450945,15 198.00323,15 Z M195.00323,12 C195.555514,12 196.00323,12.4477153 196.00323,13 C196.00323,13.5522847 195.555514,14 195.00323,14 C194.450945,14 194.00323,13.5522847 194.00323,13 C194.00323,12.4477153 194.450945,12 195.00323,12 Z M231.00323,12 C231.555514,12 232.00323,12.4477153 232.00323,13 C232.00323,13.5522847 231.555514,14 231.00323,14 C230.450945,14 230.00323,13.5522847 230.00323,13 C230.00323,12.4477153 230.450945,12 231.00323,12 Z M228.00323,12 C228.555514,12 229.00323,12.4477153 229.00323,13 C229.00323,13.5522847 228.555514,14 228.00323,14 C227.450945,14 227.00323,13.5522847 227.00323,13 C227.00323,12.4477153 227.450945,12 228.00323,12 Z M225.00323,12 C225.555514,12 226.00323,12.4477153 226.00323,13 C226.00323,13.5522847 225.555514,14 225.00323,14 C224.450945,14 224.00323,13.5522847 224.00323,13 C224.00323,12.4477153 224.450945,12 225.00323,12 Z M222.00323,12 C222.555514,12 223.00323,12.4477153 223.00323,13 C223.00323,13.5522847 222.555514,14 222.00323,14 C221.450945,14 221.00323,13.5522847 221.00323,13 C221.00323,12.4477153 221.450945,12 222.00323,12 Z M219.00323,12 C219.555514,12 220.00323,12.4477153 220.00323,13 C220.00323,13.5522847 219.555514,14 219.00323,14 C218.450945,14 218.00323,13.5522847 218.00323,13 C218.00323,12.4477153 218.450945,12 219.00323,12 Z M216.00323,12 C216.555514,12 217.00323,12.4477153 217.00323,13 C217.00323,13.5522847 216.555514,14 216.00323,14 C215.450945,14 215.00323,13.5522847 215.00323,13 C215.00323,12.4477153 215.450945,12 216.00323,12 Z M213.00323,12 C213.555514,12 214.00323,12.4477153 214.00323,13 C214.00323,13.5522847 213.555514,14 213.00323,14 C212.450945,14 212.00323,13.5522847 212.00323,13 C212.00323,12.4477153 212.450945,12 213.00323,12 Z M210.00323,12 C210.555514,12 211.00323,12.4477153 211.00323,13 C211.00323,13.5522847 210.555514,14 210.00323,14 C209.450945,14 209.00323,13.5522847 209.00323,13 C209.00323,12.4477153 209.450945,12 210.00323,12 Z M207.00323,12 C207.555514,12 208.00323,12.4477153 208.00323,13 C208.00323,13.5522847 207.555514,14 207.00323,14 C206.450945,14 206.00323,13.5522847 206.00323,13 C206.00323,12.4477153 206.450945,12 207.00323,12 Z M204.00323,12 C204.555514,12 205.00323,12.4477153 205.00323,13 C205.00323,13.5522847 204.555514,14 204.00323,14 C203.450945,14 203.00323,13.5522847 203.00323,13 C203.00323,12.4477153 203.450945,12 204.00323,12 Z M201.00323,12 C201.555514,12 202.00323,12.4477153 202.00323,13 C202.00323,13.5522847 201.555514,14 201.00323,14 C200.450945,14 200.00323,13.5522847 200.00323,13 C200.00323,12.4477153 200.450945,12 201.00323,12 Z M198.00323,12 C198.555514,12 199.00323,12.4477153 199.00323,13 C199.00323,13.5522847 198.555514,14 198.00323,14 C197.450945,14 197.00323,13.5522847 197.00323,13 C197.00323,12.4477153 197.450945,12 198.00323,12 Z M192.00323,12 C192.555514,12 193.00323,12.4477153 193.00323,13 C193.00323,13.5522847 192.555514,14 192.00323,14 C191.450945,14 191.00323,13.5522847 191.00323,13 C191.00323,12.4477153 191.450945,12 192.00323,12 Z M189.00323,12 C189.555514,12 190.00323,12.4477153 190.00323,13 C190.00323,13.5522847 189.555514,14 189.00323,14 C188.450945,14 188.00323,13.5522847 188.00323,13 C188.00323,12.4477153 188.450945,12 189.00323,12 Z M186.00323,12 C186.555514,12 187.00323,12.4477153 187.00323,13 C187.00323,13.5522847 186.555514,14 186.00323,14 C185.450945,14 185.00323,13.5522847 185.00323,13 C185.00323,12.4477153 185.450945,12 186.00323,12 Z M183.00323,12 C183.555514,12 184.00323,12.4477153 184.00323,13 C184.00323,13.5522847 183.555514,14 183.00323,14 C182.450945,14 182.00323,13.5522847 182.00323,13 C182.00323,12.4477153 182.450945,12 183.00323,12 Z M180.00323,12 C180.555514,12 181.00323,12.4477153 181.00323,13 C181.00323,13.5522847 180.555514,14 180.00323,14 C179.450945,14 179.00323,13.5522847 179.00323,13 C179.00323,12.4477153 179.450945,12 180.00323,12 Z M177.00323,12 C177.555514,12 178.00323,12.4477153 178.00323,13 C178.00323,13.5522847 177.555514,14 177.00323,14 C176.450945,14 176.00323,13.5522847 176.00323,13 C176.00323,12.4477153 176.450945,12 177.00323,12 Z M174.00323,12 C174.555514,12 175.00323,12.4477153 175.00323,13 C175.00323,13.5522847 174.555514,14 174.00323,14 C173.450945,14 173.00323,13.5522847 173.00323,13 C173.00323,12.4477153 173.450945,12 174.00323,12 Z M171.00323,12 C171.555514,12 172.00323,12.4477153 172.00323,13 C172.00323,13.5522847 171.555514,14 171.00323,14 C170.450945,14 170.00323,13.5522847 170.00323,13 C170.00323,12.4477153 170.450945,12 171.00323,12 Z M168.00323,12 C168.555514,12 169.00323,12.4477153 169.00323,13 C169.00323,13.5522847 168.555514,14 168.00323,14 C167.450945,14 167.00323,13.5522847 167.00323,13 C167.00323,12.4477153 167.450945,12 168.00323,12 Z M165.00323,12 C165.555514,12 166.00323,12.4477153 166.00323,13 C166.00323,13.5522847 165.555514,14 165.00323,14 C164.450945,14 164.00323,13.5522847 164.00323,13 C164.00323,12.4477153 164.450945,12 165.00323,12 Z M165.00323,9 C165.555514,9 166.00323,9.44771525 166.00323,10 C166.00323,10.5522847 165.555514,11 165.00323,11 C164.450945,11 164.00323,10.5522847 164.00323,10 C164.00323,9.44771525 164.450945,9 165.00323,9 Z M168.00323,9 C168.555514,9 169.00323,9.44771525 169.00323,10 C169.00323,10.5522847 168.555514,11 168.00323,11 C167.450945,11 167.00323,10.5522847 167.00323,10 C167.00323,9.44771525 167.450945,9 168.00323,9 Z M171.00323,9 C171.555514,9 172.00323,9.44771525 172.00323,10 C172.00323,10.5522847 171.555514,11 171.00323,11 C170.450945,11 170.00323,10.5522847 170.00323,10 C170.00323,9.44771525 170.450945,9 171.00323,9 Z M174.00323,9 C174.555514,9 175.00323,9.44771525 175.00323,10 C175.00323,10.5522847 174.555514,11 174.00323,11 C173.450945,11 173.00323,10.5522847 173.00323,10 C173.00323,9.44771525 173.450945,9 174.00323,9 Z M177.00323,9 C177.555514,9 178.00323,9.44771525 178.00323,10 C178.00323,10.5522847 177.555514,11 177.00323,11 C176.450945,11 176.00323,10.5522847 176.00323,10 C176.00323,9.44771525 176.450945,9 177.00323,9 Z M180.00323,9 C180.555514,9 181.00323,9.44771525 181.00323,10 C181.00323,10.5522847 180.555514,11 180.00323,11 C179.450945,11 179.00323,10.5522847 179.00323,10 C179.00323,9.44771525 179.450945,9 180.00323,9 Z M183.00323,9 C183.555514,9 184.00323,9.44771525 184.00323,10 C184.00323,10.5522847 183.555514,11 183.00323,11 C182.450945,11 182.00323,10.5522847 182.00323,10 C182.00323,9.44771525 182.450945,9 183.00323,9 Z M186.00323,9 C186.555514,9 187.00323,9.44771525 187.00323,10 C187.00323,10.5522847 186.555514,11 186.00323,11 C185.450945,11 185.00323,10.5522847 185.00323,10 C185.00323,9.44771525 185.450945,9 186.00323,9 Z M189.00323,9 C189.555514,9 190.00323,9.44771525 190.00323,10 C190.00323,10.5522847 189.555514,11 189.00323,11 C188.450945,11 188.00323,10.5522847 188.00323,10 C188.00323,9.44771525 188.450945,9 189.00323,9 Z M192.00323,9 C192.555514,9 193.00323,9.44771525 193.00323,10 C193.00323,10.5522847 192.555514,11 192.00323,11 C191.450945,11 191.00323,10.5522847 191.00323,10 C191.00323,9.44771525 191.450945,9 192.00323,9 Z M195.00323,9 C195.555514,9 196.00323,9.44771525 196.00323,10 C196.00323,10.5522847 195.555514,11 195.00323,11 C194.450945,11 194.00323,10.5522847 194.00323,10 C194.00323,9.44771525 194.450945,9 195.00323,9 Z M198.00323,9 C198.555514,9 199.00323,9.44771525 199.00323,10 C199.00323,10.5522847 198.555514,11 198.00323,11 C197.450945,11 197.00323,10.5522847 197.00323,10 C197.00323,9.44771525 197.450945,9 198.00323,9 Z M204.00323,9 C204.555514,9 205.00323,9.44771525 205.00323,10 C205.00323,10.5522847 204.555514,11 204.00323,11 C203.450945,11 203.00323,10.5522847 203.00323,10 C203.00323,9.44771525 203.450945,9 204.00323,9 Z M207.00323,9 C207.555514,9 208.00323,9.44771525 208.00323,10 C208.00323,10.5522847 207.555514,11 207.00323,11 C206.450945,11 206.00323,10.5522847 206.00323,10 C206.00323,9.44771525 206.450945,9 207.00323,9 Z M210.00323,9 C210.555514,9 211.00323,9.44771525 211.00323,10 C211.00323,10.5522847 210.555514,11 210.00323,11 C209.450945,11 209.00323,10.5522847 209.00323,10 C209.00323,9.44771525 209.450945,9 210.00323,9 Z M213.00323,9 C213.555514,9 214.00323,9.44771525 214.00323,10 C214.00323,10.5522847 213.555514,11 213.00323,11 C212.450945,11 212.00323,10.5522847 212.00323,10 C212.00323,9.44771525 212.450945,9 213.00323,9 Z M216.00323,9 C216.555514,9 217.00323,9.44771525 217.00323,10 C217.00323,10.5522847 216.555514,11 216.00323,11 C215.450945,11 215.00323,10.5522847 215.00323,10 C215.00323,9.44771525 215.450945,9 216.00323,9 Z M219.00323,9 C219.555514,9 220.00323,9.44771525 220.00323,10 C220.00323,10.5522847 219.555514,11 219.00323,11 C218.450945,11 218.00323,10.5522847 218.00323,10 C218.00323,9.44771525 218.450945,9 219.00323,9 Z M222.00323,9 C222.555514,9 223.00323,9.44771525 223.00323,10 C223.00323,10.5522847 222.555514,11 222.00323,11 C221.450945,11 221.00323,10.5522847 221.00323,10 C221.00323,9.44771525 221.450945,9 222.00323,9 Z M225.00323,9 C225.555514,9 226.00323,9.44771525 226.00323,10 C226.00323,10.5522847 225.555514,11 225.00323,11 C224.450945,11 224.00323,10.5522847 224.00323,10 C224.00323,9.44771525 224.450945,9 225.00323,9 Z M228.00323,9 C228.555514,9 229.00323,9.44771525 229.00323,10 C229.00323,10.5522847 228.555514,11 228.00323,11 C227.450945,11 227.00323,10.5522847 227.00323,10 C227.00323,9.44771525 227.450945,9 228.00323,9 Z M231.00323,9 C231.555514,9 232.00323,9.44771525 232.00323,10 C232.00323,10.5522847 231.555514,11 231.00323,11 C230.450945,11 230.00323,10.5522847 230.00323,10 C230.00323,9.44771525 230.450945,9 231.00323,9 Z M201.00323,9 C201.555514,9 202.00323,9.44771525 202.00323,10 C202.00323,10.5522847 201.555514,11 201.00323,11 C200.450945,11 200.00323,10.5522847 200.00323,10 C200.00323,9.44771525 200.450945,9 201.00323,9 Z M195.00323,6 C195.555514,6 196.00323,6.44771525 196.00323,7 C196.00323,7.55228475 195.555514,8 195.00323,8 C194.450945,8 194.00323,7.55228475 194.00323,7 C194.00323,6.44771525 194.450945,6 195.00323,6 Z M228.00323,6 C228.555514,6 229.00323,6.44771525 229.00323,7 C229.00323,7.55228475 228.555514,8 228.00323,8 C227.450945,8 227.00323,7.55228475 227.00323,7 C227.00323,6.44771525 227.450945,6 228.00323,6 Z M225.00323,6 C225.555514,6 226.00323,6.44771525 226.00323,7 C226.00323,7.55228475 225.555514,8 225.00323,8 C224.450945,8 224.00323,7.55228475 224.00323,7 C224.00323,6.44771525 224.450945,6 225.00323,6 Z M222.00323,6 C222.555514,6 223.00323,6.44771525 223.00323,7 C223.00323,7.55228475 222.555514,8 222.00323,8 C221.450945,8 221.00323,7.55228475 221.00323,7 C221.00323,6.44771525 221.450945,6 222.00323,6 Z M219.00323,6 C219.555514,6 220.00323,6.44771525 220.00323,7 C220.00323,7.55228475 219.555514,8 219.00323,8 C218.450945,8 218.00323,7.55228475 218.00323,7 C218.00323,6.44771525 218.450945,6 219.00323,6 Z M216.00323,6 C216.555514,6 217.00323,6.44771525 217.00323,7 C217.00323,7.55228475 216.555514,8 216.00323,8 C215.450945,8 215.00323,7.55228475 215.00323,7 C215.00323,6.44771525 215.450945,6 216.00323,6 Z M213.00323,6 C213.555514,6 214.00323,6.44771525 214.00323,7 C214.00323,7.55228475 213.555514,8 213.00323,8 C212.450945,8 212.00323,7.55228475 212.00323,7 C212.00323,6.44771525 212.450945,6 213.00323,6 Z M210.00323,6 C210.555514,6 211.00323,6.44771525 211.00323,7 C211.00323,7.55228475 210.555514,8 210.00323,8 C209.450945,8 209.00323,7.55228475 209.00323,7 C209.00323,6.44771525 209.450945,6 210.00323,6 Z M207.00323,6 C207.555514,6 208.00323,6.44771525 208.00323,7 C208.00323,7.55228475 207.555514,8 207.00323,8 C206.450945,8 206.00323,7.55228475 206.00323,7 C206.00323,6.44771525 206.450945,6 207.00323,6 Z M204.00323,6 C204.555514,6 205.00323,6.44771525 205.00323,7 C205.00323,7.55228475 204.555514,8 204.00323,8 C203.450945,8 203.00323,7.55228475 203.00323,7 C203.00323,6.44771525 203.450945,6 204.00323,6 Z M201.00323,6 C201.555514,6 202.00323,6.44771525 202.00323,7 C202.00323,7.55228475 201.555514,8 201.00323,8 C200.450945,8 200.00323,7.55228475 200.00323,7 C200.00323,6.44771525 200.450945,6 201.00323,6 Z M198.00323,6 C198.555514,6 199.00323,6.44771525 199.00323,7 C199.00323,7.55228475 198.555514,8 198.00323,8 C197.450945,8 197.00323,7.55228475 197.00323,7 C197.00323,6.44771525 197.450945,6 198.00323,6 Z M162.00323,6 C162.555514,6 163.00323,6.44771525 163.00323,7 C163.00323,7.55228475 162.555514,8 162.00323,8 C161.450945,8 161.00323,7.55228475 161.00323,7 C161.00323,6.44771525 161.450945,6 162.00323,6 Z M192.00323,6 C192.555514,6 193.00323,6.44771525 193.00323,7 C193.00323,7.55228475 192.555514,8 192.00323,8 C191.450945,8 191.00323,7.55228475 191.00323,7 C191.00323,6.44771525 191.450945,6 192.00323,6 Z M189.00323,6 C189.555514,6 190.00323,6.44771525 190.00323,7 C190.00323,7.55228475 189.555514,8 189.00323,8 C188.450945,8 188.00323,7.55228475 188.00323,7 C188.00323,6.44771525 188.450945,6 189.00323,6 Z M186.00323,6 C186.555514,6 187.00323,6.44771525 187.00323,7 C187.00323,7.55228475 186.555514,8 186.00323,8 C185.450945,8 185.00323,7.55228475 185.00323,7 C185.00323,6.44771525 185.450945,6 186.00323,6 Z M183.00323,6 C183.555514,6 184.00323,6.44771525 184.00323,7 C184.00323,7.55228475 183.555514,8 183.00323,8 C182.450945,8 182.00323,7.55228475 182.00323,7 C182.00323,6.44771525 182.450945,6 183.00323,6 Z M180.00323,6 C180.555514,6 181.00323,6.44771525 181.00323,7 C181.00323,7.55228475 180.555514,8 180.00323,8 C179.450945,8 179.00323,7.55228475 179.00323,7 C179.00323,6.44771525 179.450945,6 180.00323,6 Z M177.00323,6 C177.555514,6 178.00323,6.44771525 178.00323,7 C178.00323,7.55228475 177.555514,8 177.00323,8 C176.450945,8 176.00323,7.55228475 176.00323,7 C176.00323,6.44771525 176.450945,6 177.00323,6 Z M174.00323,6 C174.555514,6 175.00323,6.44771525 175.00323,7 C175.00323,7.55228475 174.555514,8 174.00323,8 C173.450945,8 173.00323,7.55228475 173.00323,7 C173.00323,6.44771525 173.450945,6 174.00323,6 Z M171.00323,6 C171.555514,6 172.00323,6.44771525 172.00323,7 C172.00323,7.55228475 171.555514,8 171.00323,8 C170.450945,8 170.00323,7.55228475 170.00323,7 C170.00323,6.44771525 170.450945,6 171.00323,6 Z M168.00323,6 C168.555514,6 169.00323,6.44771525 169.00323,7 C169.00323,7.55228475 168.555514,8 168.00323,8 C167.450945,8 167.00323,7.55228475 167.00323,7 C167.00323,6.44771525 167.450945,6 168.00323,6 Z M165.00323,6 C165.555514,6 166.00323,6.44771525 166.00323,7 C166.00323,7.55228475 165.555514,8 165.00323,8 C164.450945,8 164.00323,7.55228475 164.00323,7 C164.00323,6.44771525 164.450945,6 165.00323,6 Z M231.00323,6 C231.555514,6 232.00323,6.44771525 232.00323,7 C232.00323,7.55228475 231.555514,8 231.00323,8 C230.450945,8 230.00323,7.55228475 230.00323,7 C230.00323,6.44771525 230.450945,6 231.00323,6 Z M234.00323,6 C234.555514,6 235.00323,6.44771525 235.00323,7 C235.00323,7.55228475 234.555514,8 234.00323,8 C233.450945,8 233.00323,7.55228475 233.00323,7 C233.00323,6.44771525 233.450945,6 234.00323,6 Z M204.00323,3 C204.555514,3 205.00323,3.44771525 205.00323,4 C205.00323,4.55228475 204.555514,5 204.00323,5 C203.450945,5 203.00323,4.55228475 203.00323,4 C203.00323,3.44771525 203.450945,3 204.00323,3 Z M162.00323,3 C162.555514,3 163.00323,3.44771525 163.00323,4 C163.00323,4.55228475 162.555514,5 162.00323,5 C161.450945,5 161.00323,4.55228475 161.00323,4 C161.00323,3.44771525 161.450945,3 162.00323,3 Z M234.00323,3 C234.555514,3 235.00323,3.44771525 235.00323,4 C235.00323,4.55228475 234.555514,5 234.00323,5 C233.450945,5 233.00323,4.55228475 233.00323,4 C233.00323,3.44771525 233.450945,3 234.00323,3 Z M231.00323,3 C231.555514,3 232.00323,3.44771525 232.00323,4 C232.00323,4.55228475 231.555514,5 231.00323,5 C230.450945,5 230.00323,4.55228475 230.00323,4 C230.00323,3.44771525 230.450945,3 231.00323,3 Z M228.00323,3 C228.555514,3 229.00323,3.44771525 229.00323,4 C229.00323,4.55228475 228.555514,5 228.00323,5 C227.450945,5 227.00323,4.55228475 227.00323,4 C227.00323,3.44771525 227.450945,3 228.00323,3 Z M225.00323,3 C225.555514,3 226.00323,3.44771525 226.00323,4 C226.00323,4.55228475 225.555514,5 225.00323,5 C224.450945,5 224.00323,4.55228475 224.00323,4 C224.00323,3.44771525 224.450945,3 225.00323,3 Z M222.00323,3 C222.555514,3 223.00323,3.44771525 223.00323,4 C223.00323,4.55228475 222.555514,5 222.00323,5 C221.450945,5 221.00323,4.55228475 221.00323,4 C221.00323,3.44771525 221.450945,3 222.00323,3 Z M219.00323,3 C219.555514,3 220.00323,3.44771525 220.00323,4 C220.00323,4.55228475 219.555514,5 219.00323,5 C218.450945,5 218.00323,4.55228475 218.00323,4 C218.00323,3.44771525 218.450945,3 219.00323,3 Z M216.00323,3 C216.555514,3 217.00323,3.44771525 217.00323,4 C217.00323,4.55228475 216.555514,5 216.00323,5 C215.450945,5 215.00323,4.55228475 215.00323,4 C215.00323,3.44771525 215.450945,3 216.00323,3 Z M213.00323,3 C213.555514,3 214.00323,3.44771525 214.00323,4 C214.00323,4.55228475 213.555514,5 213.00323,5 C212.450945,5 212.00323,4.55228475 212.00323,4 C212.00323,3.44771525 212.450945,3 213.00323,3 Z M210.00323,3 C210.555514,3 211.00323,3.44771525 211.00323,4 C211.00323,4.55228475 210.555514,5 210.00323,5 C209.450945,5 209.00323,4.55228475 209.00323,4 C209.00323,3.44771525 209.450945,3 210.00323,3 Z M207.00323,3 C207.555514,3 208.00323,3.44771525 208.00323,4 C208.00323,4.55228475 207.555514,5 207.00323,5 C206.450945,5 206.00323,4.55228475 206.00323,4 C206.00323,3.44771525 206.450945,3 207.00323,3 Z M201.00323,3 C201.555514,3 202.00323,3.44771525 202.00323,4 C202.00323,4.55228475 201.555514,5 201.00323,5 C200.450945,5 200.00323,4.55228475 200.00323,4 C200.00323,3.44771525 200.450945,3 201.00323,3 Z M198.00323,3 C198.555514,3 199.00323,3.44771525 199.00323,4 C199.00323,4.55228475 198.555514,5 198.00323,5 C197.450945,5 197.00323,4.55228475 197.00323,4 C197.00323,3.44771525 197.450945,3 198.00323,3 Z M195.00323,3 C195.555514,3 196.00323,3.44771525 196.00323,4 C196.00323,4.55228475 195.555514,5 195.00323,5 C194.450945,5 194.00323,4.55228475 194.00323,4 C194.00323,3.44771525 194.450945,3 195.00323,3 Z M192.00323,3 C192.555514,3 193.00323,3.44771525 193.00323,4 C193.00323,4.55228475 192.555514,5 192.00323,5 C191.450945,5 191.00323,4.55228475 191.00323,4 C191.00323,3.44771525 191.450945,3 192.00323,3 Z M189.00323,3 C189.555514,3 190.00323,3.44771525 190.00323,4 C190.00323,4.55228475 189.555514,5 189.00323,5 C188.450945,5 188.00323,4.55228475 188.00323,4 C188.00323,3.44771525 188.450945,3 189.00323,3 Z M186.00323,3 C186.555514,3 187.00323,3.44771525 187.00323,4 C187.00323,4.55228475 186.555514,5 186.00323,5 C185.450945,5 185.00323,4.55228475 185.00323,4 C185.00323,3.44771525 185.450945,3 186.00323,3 Z M183.00323,3 C183.555514,3 184.00323,3.44771525 184.00323,4 C184.00323,4.55228475 183.555514,5 183.00323,5 C182.450945,5 182.00323,4.55228475 182.00323,4 C182.00323,3.44771525 182.450945,3 183.00323,3 Z M180.00323,3 C180.555514,3 181.00323,3.44771525 181.00323,4 C181.00323,4.55228475 180.555514,5 180.00323,5 C179.450945,5 179.00323,4.55228475 179.00323,4 C179.00323,3.44771525 179.450945,3 180.00323,3 Z M177.00323,3 C177.555514,3 178.00323,3.44771525 178.00323,4 C178.00323,4.55228475 177.555514,5 177.00323,5 C176.450945,5 176.00323,4.55228475 176.00323,4 C176.00323,3.44771525 176.450945,3 177.00323,3 Z M174.00323,3 C174.555514,3 175.00323,3.44771525 175.00323,4 C175.00323,4.55228475 174.555514,5 174.00323,5 C173.450945,5 173.00323,4.55228475 173.00323,4 C173.00323,3.44771525 173.450945,3 174.00323,3 Z M171.00323,3 C171.555514,3 172.00323,3.44771525 172.00323,4 C172.00323,4.55228475 171.555514,5 171.00323,5 C170.450945,5 170.00323,4.55228475 170.00323,4 C170.00323,3.44771525 170.450945,3 171.00323,3 Z M168.00323,3 C168.555514,3 169.00323,3.44771525 169.00323,4 C169.00323,4.55228475 168.555514,5 168.00323,5 C167.450945,5 167.00323,4.55228475 167.00323,4 C167.00323,3.44771525 167.450945,3 168.00323,3 Z M165.00323,3 C165.555514,3 166.00323,3.44771525 166.00323,4 C166.00323,4.55228475 165.555514,5 165.00323,5 C164.450945,5 164.00323,4.55228475 164.00323,4 C164.00323,3.44771525 164.450945,3 165.00323,3 Z M162.00323,0 C162.555514,0 163.00323,0.44771525 163.00323,1 C163.00323,1.55228475 162.555514,2 162.00323,2 C161.450945,2 161.00323,1.55228475 161.00323,1 C161.00323,0.44771525 161.450945,0 162.00323,0 Z M237.00323,0 C237.555514,0 238.00323,0.44771525 238.00323,1 C238.00323,1.55228475 237.555514,2 237.00323,2 C236.450945,2 236.00323,1.55228475 236.00323,1 C236.00323,0.44771525 236.450945,0 237.00323,0 Z M165.00323,0 C165.555514,0 166.00323,0.44771525 166.00323,1 C166.00323,1.55228475 165.555514,2 165.00323,2 C164.450945,2 164.00323,1.55228475 164.00323,1 C164.00323,0.44771525 164.450945,0 165.00323,0 Z M168.00323,0 C168.555514,0 169.00323,0.44771525 169.00323,1 C169.00323,1.55228475 168.555514,2 168.00323,2 C167.450945,2 167.00323,1.55228475 167.00323,1 C167.00323,0.44771525 167.450945,0 168.00323,0 Z M171.00323,0 C171.555514,0 172.00323,0.44771525 172.00323,1 C172.00323,1.55228475 171.555514,2 171.00323,2 C170.450945,2 170.00323,1.55228475 170.00323,1 C170.00323,0.44771525 170.450945,0 171.00323,0 Z M174.00323,0 C174.555514,0 175.00323,0.44771525 175.00323,1 C175.00323,1.55228475 174.555514,2 174.00323,2 C173.450945,2 173.00323,1.55228475 173.00323,1 C173.00323,0.44771525 173.450945,0 174.00323,0 Z M177.00323,0 C177.555514,0 178.00323,0.44771525 178.00323,1 C178.00323,1.55228475 177.555514,2 177.00323,2 C176.450945,2 176.00323,1.55228475 176.00323,1 C176.00323,0.44771525 176.450945,0 177.00323,0 Z M180.00323,0 C180.555514,0 181.00323,0.44771525 181.00323,1 C181.00323,1.55228475 180.555514,2 180.00323,2 C179.450945,2 179.00323,1.55228475 179.00323,1 C179.00323,0.44771525 179.450945,0 180.00323,0 Z M183.00323,0 C183.555514,0 184.00323,0.44771525 184.00323,1 C184.00323,1.55228475 183.555514,2 183.00323,2 C182.450945,2 182.00323,1.55228475 182.00323,1 C182.00323,0.44771525 182.450945,0 183.00323,0 Z M186.00323,0 C186.555514,0 187.00323,0.44771525 187.00323,1 C187.00323,1.55228475 186.555514,2 186.00323,2 C185.450945,2 185.00323,1.55228475 185.00323,1 C185.00323,0.44771525 185.450945,0 186.00323,0 Z M189.00323,0 C189.555514,0 190.00323,0.44771525 190.00323,1 C190.00323,1.55228475 189.555514,2 189.00323,2 C188.450945,2 188.00323,1.55228475 188.00323,1 C188.00323,0.44771525 188.450945,0 189.00323,0 Z M192.00323,0 C192.555514,0 193.00323,0.44771525 193.00323,1 C193.00323,1.55228475 192.555514,2 192.00323,2 C191.450945,2 191.00323,1.55228475 191.00323,1 C191.00323,0.44771525 191.450945,0 192.00323,0 Z M195.00323,0 C195.555514,0 196.00323,0.44771525 196.00323,1 C196.00323,1.55228475 195.555514,2 195.00323,2 C194.450945,2 194.00323,1.55228475 194.00323,1 C194.00323,0.44771525 194.450945,0 195.00323,0 Z M198.00323,0 C198.555514,0 199.00323,0.44771525 199.00323,1 C199.00323,1.55228475 198.555514,2 198.00323,2 C197.450945,2 197.00323,1.55228475 197.00323,1 C197.00323,0.44771525 197.450945,0 198.00323,0 Z M231.00323,0 C231.555514,0 232.00323,0.44771525 232.00323,1 C232.00323,1.55228475 231.555514,2 231.00323,2 C230.450945,2 230.00323,1.55228475 230.00323,1 C230.00323,0.44771525 230.450945,0 231.00323,0 Z M201.00323,0 C201.555514,0 202.00323,0.44771525 202.00323,1 C202.00323,1.55228475 201.555514,2 201.00323,2 C200.450945,2 200.00323,1.55228475 200.00323,1 C200.00323,0.44771525 200.450945,0 201.00323,0 Z M204.00323,0 C204.555514,0 205.00323,0.44771525 205.00323,1 C205.00323,1.55228475 204.555514,2 204.00323,2 C203.450945,2 203.00323,1.55228475 203.00323,1 C203.00323,0.44771525 203.450945,0 204.00323,0 Z M207.00323,0 C207.555514,0 208.00323,0.44771525 208.00323,1 C208.00323,1.55228475 207.555514,2 207.00323,2 C206.450945,2 206.00323,1.55228475 206.00323,1 C206.00323,0.44771525 206.450945,0 207.00323,0 Z M210.00323,0 C210.555514,0 211.00323,0.44771525 211.00323,1 C211.00323,1.55228475 210.555514,2 210.00323,2 C209.450945,2 209.00323,1.55228475 209.00323,1 C209.00323,0.44771525 209.450945,0 210.00323,0 Z M213.00323,0 C213.555514,0 214.00323,0.44771525 214.00323,1 C214.00323,1.55228475 213.555514,2 213.00323,2 C212.450945,2 212.00323,1.55228475 212.00323,1 C212.00323,0.44771525 212.450945,0 213.00323,0 Z M216.00323,0 C216.555514,0 217.00323,0.44771525 217.00323,1 C217.00323,1.55228475 216.555514,2 216.00323,2 C215.450945,2 215.00323,1.55228475 215.00323,1 C215.00323,0.44771525 215.450945,0 216.00323,0 Z M219.00323,0 C219.555514,0 220.00323,0.44771525 220.00323,1 C220.00323,1.55228475 219.555514,2 219.00323,2 C218.450945,2 218.00323,1.55228475 218.00323,1 C218.00323,0.44771525 218.450945,0 219.00323,0 Z M222.00323,0 C222.555514,0 223.00323,0.44771525 223.00323,1 C223.00323,1.55228475 222.555514,2 222.00323,2 C221.450945,2 221.00323,1.55228475 221.00323,1 C221.00323,0.44771525 221.450945,0 222.00323,0 Z M225.00323,0 C225.555514,0 226.00323,0.44771525 226.00323,1 C226.00323,1.55228475 225.555514,2 225.00323,2 C224.450945,2 224.00323,1.55228475 224.00323,1 C224.00323,0.44771525 224.450945,0 225.00323,0 Z M228.00323,0 C228.555514,0 229.00323,0.44771525 229.00323,1 C229.00323,1.55228475 228.555514,2 228.00323,2 C227.450945,2 227.00323,1.55228475 227.00323,1 C227.00323,0.44771525 227.450945,0 228.00323,0 Z M159.00323,0 C159.555514,0 160.00323,0.44771525 160.00323,1 C160.00323,1.55228475 159.555514,2 159.00323,2 C158.450945,2 158.00323,1.55228475 158.00323,1 C158.00323,0.44771525 158.450945,0 159.00323,0 Z M234.00323,0 C234.555514,0 235.00323,0.44771525 235.00323,1 C235.00323,1.55228475 234.555514,2 234.00323,2 C233.450945,2 233.00323,1.55228475 233.00323,1 C233.00323,0.44771525 233.450945,0 234.00323,0 Z" id="形状2" fill="#FFFFFF" opacity="0.05"></path>
        </g>
    </g>
</svg>