<?xml version="1.0" encoding="UTF-8"?>
<svg width="280px" height="56px" viewBox="0 0 280 56" version="1.1" xmlns="http://www.w3.org/2000/svg" xmlns:xlink="http://www.w3.org/1999/xlink">
    <title>编组 2</title>
    <g id="组件" stroke="none" stroke-width="1" fill="none" fill-rule="evenodd">
        <g id="编组-2">
            <rect id="矩形" x="0" y="0" width="280" height="56"></rect>
            <path d="M127.644246,35.0192379 L139.75723,55.9995681 L71.3052295,55.9995681 L113.983992,31.3589838 C118.766918,28.5975601 124.882822,30.2363117 127.644246,35.0192379 Z" id="形状3" fill="#FFFFFF" opacity="0.04"></path>
            <path d="M30.2904166,55.8230855 C30.3234733,55.8803414 30.3502245,55.9395075 30.3708855,55.9997797 L28.4781104,55.999696 C28.5535376,55.7786914 28.7062687,55.5829931 28.9243912,55.4570601 C29.4026838,55.1809177 30.0142742,55.3447928 30.2904166,55.8230855 Z M36.986569,55.4211617 C37.0918867,55.6035773 37.1332005,55.8053822 37.1174781,56.0005721 L35.1234578,56.0004467 C35.0941095,55.6280906 35.2755204,55.2543355 35.6205436,55.0551363 C36.0988362,54.7789939 36.7104266,54.9428691 36.986569,55.4211617 Z M43.6827214,55.0192379 C43.8639788,55.3331848 43.855655,55.704563 43.6932704,56.0008086 L41.9402242,55.9998423 L41.8981864,55.9148772 C41.6995432,55.4552867 41.8725672,54.9096304 42.316696,54.6532125 C42.7949886,54.3770701 43.4065791,54.5409453 43.6827214,55.0192379 Z M47.7013884,55.9996665 L46.1280444,55.9995839 C46.2046221,55.9019919 46.3007651,55.8171108 46.4147722,55.7512887 C46.8150511,55.5201876 47.3086899,55.5972689 47.6209346,55.9089125 L47.7013884,55.9996665 Z M50.3788738,54.6173141 C50.6550162,55.0956067 50.4911411,55.7071971 50.0128484,55.9833395 L49.9782242,55.9998423 L49.0445616,56.0010402 C48.883882,55.9160911 48.7444072,55.7863348 48.646823,55.6173141 C48.3706807,55.1390215 48.5345558,54.5274311 49.0128484,54.2512887 C49.4911411,53.9751463 50.1027315,54.1390215 50.3788738,54.6173141 Z M54.4769501,55.7153903 C54.5296089,55.8065981 54.5662668,55.9026533 54.5877947,56.0003052 L52.634395,55.9999787 C52.6928152,55.7354869 52.8578598,55.495472 53.1109247,55.3493649 C53.5892173,55.0732225 54.2008077,55.2370977 54.4769501,55.7153903 Z M61.1731025,55.3134665 C61.2979011,55.5296241 61.3328279,55.7730073 61.2894766,56.0003479 L59.3244123,56.000322 C59.247163,55.594135 59.4287683,55.1658578 59.8070771,54.9474411 C60.2853697,54.6712987 60.8969601,54.8351739 61.1731025,55.3134665 Z M67.8692549,54.9115427 C68.0733698,55.2650801 68.0370743,55.6914467 67.8110926,56.0013376 L66.1950499,56.0006181 C66.1744417,55.9722722 66.1551171,55.942569 66.1372041,55.9115427 C65.8610617,55.4332501 66.0249369,54.8216597 66.5032295,54.5455173 C66.9815221,54.269375 67.5931125,54.4332501 67.8692549,54.9115427 Z M71.9617967,56.0001509 L70.2408302,55.9997798 C70.3254658,55.8566374 70.4470294,55.732665 70.6013057,55.6435935 C71.0764285,55.3692813 71.6830881,55.5291735 71.9617967,56.0001509 Z M74.5654073,54.5096189 C74.8415497,54.9879116 74.6776745,55.599502 74.1993819,55.8756443 C74.0798088,55.9446799 73.9519045,55.9862144 73.8229933,56.0022103 L73.5676479,56.000954 C73.2706898,55.9612756 72.9947384,55.7891406 72.8333565,55.5096189 C72.5572141,55.0313263 72.7210893,54.4197359 73.1993819,54.1435935 C73.6776745,53.8674512 74.289265,54.0313263 74.5654073,54.5096189 Z M78.6634835,55.6076952 C78.7353881,55.7322376 78.7774584,55.865818 78.7919116,56.0001605 L76.8031881,56.0001618 C76.8365455,55.6940522 77.0103572,55.4074276 77.2974581,55.2416698 C77.7757508,54.9655274 78.3873412,55.1294025 78.6634835,55.6076952 Z M85.359636,55.2057714 C85.5045348,55.4567436 85.5282808,55.7444176 85.44902,56.0010708 L83.5376707,56.000081 C83.4030134,55.5641053 83.5817297,55.0775455 83.9936106,54.839746 C84.4719032,54.5636036 85.0834936,54.7274787 85.359636,55.2057714 Z M89.1855126,55.9989396 L87.9968971,55.9998534 C88.0269584,55.9776718 88.0585688,55.9569428 88.0916868,55.9378222 C88.407307,55.7555987 88.7809723,55.7649827 89.0779879,55.9298828 L89.1855126,55.9989396 Z M92.0557884,54.8038476 C92.2847845,55.2004805 92.2111868,55.6887804 91.9066219,56.0014328 L90.4728503,56.0013528 C90.4163773,55.9432227 90.3661086,55.8772364 90.3237376,55.8038476 C90.0475952,55.325555 90.2114704,54.7139645 90.689763,54.4378222 C91.1680556,54.1616798 91.779646,54.325555 92.0557884,54.8038476 Z M96.1538646,55.9019238 L96.2032242,55.9998423 L94.3722341,55.9996796 C94.4548141,55.8112968 94.5960486,55.6466287 94.7878392,55.5358984 C95.2661318,55.259756 95.8777222,55.4236312 96.1538646,55.9019238 Z M102.850017,55.5 C102.941176,55.657892 102.984383,55.8303103 102.984159,56.0003918 L100.983825,55.999988 C100.984152,55.6547181 101.163473,55.3190259 101.483992,55.1339746 C101.962284,54.8578322 102.573875,55.0217074 102.850017,55.5 Z M109.546169,55.0980762 C109.711658,55.3847101 109.719116,55.7192171 109.595579,56.0007091 L107.764224,55.9998423 C107.562991,55.534125 107.736015,54.9884687 108.180144,54.7320508 C108.658437,54.4559084 109.270027,54.6197836 109.546169,55.0980762 Z M113.496236,55.9997849 L112.060402,55.9995531 C112.123326,55.9347787 112.196144,55.8775138 112.27822,55.830127 C112.646749,55.6173566 113.094416,55.6658182 113.406795,55.9180573 L113.496236,55.9997849 Z M98.7519408,54.4019238 C99.0280832,54.8802164 98.864208,55.4918068 98.3859154,55.7679492 C97.9076228,56.0440916 97.2960324,55.8802164 97.01989,55.4019238 C96.7437476,54.9236312 96.9076228,54.3120408 97.3859154,54.0358984 C97.864208,53.759756 98.4757984,53.9236312 98.7519408,54.4019238 Z M32.8884928,54.3230855 C33.1646352,54.8013781 33.00076,55.4129685 32.5224674,55.6891109 C32.0441748,55.9652532 31.4325844,55.8013781 31.156442,55.3230855 C30.8802996,54.8447928 31.0441748,54.2332024 31.5224674,53.9570601 C32.00076,53.6809177 32.6123504,53.8447928 32.8884928,54.3230855 Z M57.0750263,54.2153903 C57.3511686,54.6936829 57.1872935,55.3052733 56.7090009,55.5814157 C56.2307082,55.8575581 55.6191178,55.6936829 55.3429755,55.2153903 C55.0668331,54.7370977 55.2307082,54.1255073 55.7090009,53.8493649 C56.1872935,53.5732225 56.7988839,53.7370977 57.0750263,54.2153903 Z M81.2615598,54.1076952 C81.5377021,54.5859878 81.373827,55.1975782 80.8955343,55.4737206 C80.4172417,55.7498629 79.8056513,55.5859878 79.5295089,55.1076952 C79.2533666,54.6294025 79.4172417,54.0178121 79.8955343,53.7416698 C80.373827,53.4655274 80.9854174,53.6294025 81.2615598,54.1076952 Z M105.448093,54 C105.724236,54.4782926 105.56036,55.089883 105.082068,55.3660254 C104.603775,55.6421678 103.992185,55.4782926 103.716042,55 C103.4399,54.5217074 103.603775,53.910117 104.082068,53.6339746 C104.56036,53.3578322 105.171951,53.5217074 105.448093,54 Z M39.5846452,53.9211617 C39.8607876,54.3994543 39.6969124,55.0110447 39.2186198,55.2871871 C38.7403272,55.5633295 38.1287368,55.3994543 37.8525944,54.9211617 C37.576452,54.4428691 37.7403272,53.8312786 38.2186198,53.5551363 C38.6969124,53.2789939 39.3085028,53.4428691 39.5846452,53.9211617 Z M63.7711787,53.8134665 C64.0473211,54.2917591 63.8834459,54.9033495 63.4051533,55.1794919 C62.9268607,55.4556343 62.3152703,55.2917591 62.0391279,54.8134665 C61.7629855,54.3351739 61.9268607,53.7235835 62.4051533,53.4474411 C62.8834459,53.1712987 63.4950363,53.3351739 63.7711787,53.8134665 Z M87.9577122,53.7057714 C88.2338545,54.184064 88.0699794,54.7956544 87.5916868,55.0717968 C87.1133941,55.3479391 86.5018037,55.184064 86.2256614,54.7057714 C85.949519,54.2274787 86.1133941,53.6158883 86.5916868,53.339746 C87.0699794,53.0636036 87.6815698,53.2274787 87.9577122,53.7057714 Z M112.144246,53.5980762 C112.420388,54.0763688 112.256513,54.6879592 111.77822,54.9641016 C111.299928,55.240244 110.688337,55.0763688 110.412195,54.5980762 C110.136052,54.1197836 110.299928,53.5081932 110.77822,53.2320508 C111.256513,52.9559084 111.868103,53.1197836 112.144246,53.5980762 Z M46.2807976,53.5192379 C46.55694,53.9975305 46.3930649,54.6091209 45.9147722,54.8852633 C45.4364796,55.1614057 44.8248892,54.9975305 44.5487468,54.5192379 C44.2726045,54.0409453 44.4364796,53.4293549 44.9147722,53.1532125 C45.3930649,52.8770701 46.0046553,53.0409453 46.2807976,53.5192379 Z M70.4673311,53.4115427 C70.7434735,53.8898354 70.5795983,54.5014258 70.1013057,54.7775681 C69.6230131,55.0537105 69.0114227,54.8898354 68.7352803,54.4115427 C68.4591379,53.9332501 68.6230131,53.3216597 69.1013057,53.0455173 C69.5795983,52.769375 70.1911887,52.9332501 70.4673311,53.4115427 Z M94.6538646,53.3038476 C94.930007,53.7821402 94.7661318,54.3937306 94.2878392,54.669873 C93.8095466,54.9460154 93.1979562,54.7821402 92.9218138,54.3038476 C92.6456714,53.825555 92.8095466,53.2139645 93.2878392,52.9378222 C93.7661318,52.6616798 94.3777222,52.825555 94.6538646,53.3038476 Z M28.7904166,53.2250093 C29.066559,53.7033019 28.9026838,54.3148923 28.4243912,54.5910347 C27.9460986,54.867177 27.3345081,54.7033019 27.0583658,54.2250093 C26.7822234,53.7467166 26.9460986,53.1351262 27.4243912,52.8589838 C27.9026838,52.5828415 28.5142742,52.7467166 28.7904166,53.2250093 Z M52.9769501,53.1173141 C53.2530924,53.5956067 53.0892173,54.2071971 52.6109247,54.4833395 C52.132632,54.7594819 51.5210416,54.5956067 51.2448993,54.1173141 C50.9687569,53.6390215 51.132632,53.0274311 51.6109247,52.7512887 C52.0892173,52.4751463 52.7008077,52.6390215 52.9769501,53.1173141 Z M77.1634835,53.0096189 C77.4396259,53.4879116 77.2757508,54.099502 76.7974581,54.3756443 C76.3191655,54.6517867 75.7075751,54.4879116 75.4314327,54.0096189 C75.1552904,53.5313263 75.3191655,52.9197359 75.7974581,52.6435935 C76.2757508,52.3674512 76.8873412,52.5313263 77.1634835,53.0096189 Z M101.350017,52.9019238 C101.626159,53.3802164 101.462284,53.9918068 100.983992,54.2679492 C100.505699,54.5440916 99.8941086,54.3802164 99.6179662,53.9019238 C99.3418238,53.4236312 99.505699,52.8120408 99.9839916,52.5358984 C100.462284,52.259756 101.073875,52.4236312 101.350017,52.9019238 Z M35.486569,52.8230855 C35.7627114,53.3013781 35.5988362,53.9129685 35.1205436,54.1891109 C34.642251,54.4652532 34.0306606,54.3013781 33.7545182,53.8230855 C33.4783758,53.3447928 33.642251,52.7332024 34.1205436,52.4570601 C34.5988362,52.1809177 35.2104266,52.3447928 35.486569,52.8230855 Z M59.6731025,52.7153903 C59.9492449,53.1936829 59.7853697,53.8052733 59.3070771,54.0814157 C58.8287845,54.3575581 58.2171941,54.1936829 57.9410517,53.7153903 C57.6649093,53.2370977 57.8287845,52.6255073 58.3070771,52.3493649 C58.7853697,52.0732225 59.3969601,52.2370977 59.6731025,52.7153903 Z M83.859636,52.6076952 C84.1357783,53.0859878 83.9719032,53.6975782 83.4936106,53.9737206 C83.0153179,54.2498629 82.4037275,54.0859878 82.1275852,53.6076952 C81.8514428,53.1294025 82.0153179,52.5178121 82.4936106,52.2416698 C82.9719032,51.9655274 83.5834936,52.1294025 83.859636,52.6076952 Z M108.046169,52.5 C108.322312,52.9782926 108.158437,53.589883 107.680144,53.8660254 C107.201851,54.1421678 106.590261,53.9782926 106.314119,53.5 C106.037976,53.0217074 106.201851,52.410117 106.680144,52.1339746 C107.158437,51.8578322 107.770027,52.0217074 108.046169,52.5 Z M42.1827214,52.4211617 C42.4588638,52.8994543 42.2949886,53.5110447 41.816696,53.7871871 C41.3384034,54.0633295 40.726813,53.8994543 40.4506706,53.4211617 C40.1745282,52.9428691 40.3384034,52.3312786 40.816696,52.0551363 C41.2949886,51.7789939 41.9065791,51.9428691 42.1827214,52.4211617 Z M66.3692549,52.3134665 C66.6453973,52.7917591 66.4815221,53.4033495 66.0032295,53.6794919 C65.5249369,53.9556343 64.9133465,53.7917591 64.6372041,53.3134665 C64.3610617,52.8351739 64.5249369,52.2235835 65.0032295,51.9474411 C65.4815221,51.6712987 66.0931125,51.8351739 66.3692549,52.3134665 Z M90.5557884,52.2057714 C90.8319308,52.684064 90.6680556,53.2956544 90.189763,53.5717968 C89.7114704,53.8479391 89.09988,53.684064 88.8237376,53.2057714 C88.5475952,52.7274787 88.7114704,52.1158883 89.189763,51.839746 C89.6680556,51.5636036 90.279646,51.7274787 90.5557884,52.2057714 Z M48.8788738,52.0192379 C49.1550162,52.4975305 48.9911411,53.1091209 48.5128484,53.3852633 C48.0345558,53.6614057 47.4229654,53.4975305 47.146823,53.0192379 C46.8706807,52.5409453 47.0345558,51.9293549 47.5128484,51.6532125 C47.9911411,51.3770701 48.6027315,51.5409453 48.8788738,52.0192379 Z M73.0654073,51.9115427 C73.3415497,52.3898354 73.1776745,53.0014258 72.6993819,53.2775681 C72.2210893,53.5537105 71.6094989,53.3898354 71.3333565,52.9115427 C71.0572141,52.4332501 71.2210893,51.8216597 71.6993819,51.5455173 C72.1776745,51.269375 72.789265,51.4332501 73.0654073,51.9115427 Z M97.2519408,51.8038476 C97.5280832,52.2821402 97.364208,52.8937306 96.8859154,53.169873 C96.4076228,53.4460154 95.7960324,53.2821402 95.51989,52.8038476 C95.2437476,52.325555 95.4076228,51.7139645 95.8859154,51.4378222 C96.364208,51.1616798 96.9757984,51.325555 97.2519408,51.8038476 Z M31.3884928,51.7250093 C31.6646352,52.2033019 31.50076,52.8148923 31.0224674,53.0910347 C30.5441748,53.367177 29.9325844,53.2033019 29.656442,52.7250093 C29.3802996,52.2467166 29.5441748,51.6351262 30.0224674,51.3589838 C30.50076,51.0828415 31.1123504,51.2467166 31.3884928,51.7250093 Z M55.5750263,51.6173141 C55.8511686,52.0956067 55.6872935,52.7071971 55.2090009,52.9833395 C54.7307082,53.2594819 54.1191178,53.0956067 53.8429755,52.6173141 C53.5668331,52.1390215 53.7307082,51.5274311 54.2090009,51.2512887 C54.6872935,50.9751463 55.2988839,51.1390215 55.5750263,51.6173141 Z M79.7615598,51.5096189 C80.0377021,51.9879116 79.873827,52.599502 79.3955343,52.8756443 C78.9172417,53.1517867 78.3056513,52.9879116 78.0295089,52.5096189 C77.7533666,52.0313263 77.9172417,51.4197359 78.3955343,51.1435935 C78.873827,50.8674512 79.4854174,51.0313263 79.7615598,51.5096189 Z M103.948093,51.4019238 C104.224236,51.8802164 104.06036,52.4918068 103.582068,52.7679492 C103.103775,53.0440916 102.492185,52.8802164 102.216042,52.4019238 C101.9399,51.9236312 102.103775,51.3120408 102.582068,51.0358984 C103.06036,50.759756 103.671951,50.9236312 103.948093,51.4019238 Z M38.0846452,51.3230855 C38.3607876,51.8013781 38.1969124,52.4129685 37.7186198,52.6891109 C37.2403272,52.9652532 36.6287368,52.8013781 36.3525944,52.3230855 C36.076452,51.8447928 36.2403272,51.2332024 36.7186198,50.9570601 C37.1969124,50.6809177 37.8085028,50.8447928 38.0846452,51.3230855 Z M62.2711787,51.2153903 C62.5473211,51.6936829 62.3834459,52.3052733 61.9051533,52.5814157 C61.4268607,52.8575581 60.8152703,52.6936829 60.5391279,52.2153903 C60.2629855,51.7370977 60.4268607,51.1255073 60.9051533,50.8493649 C61.3834459,50.5732225 61.9950363,50.7370977 62.2711787,51.2153903 Z M86.4577122,51.1076952 C86.7338545,51.5859878 86.5699794,52.1975782 86.0916868,52.4737206 C85.6133941,52.7498629 85.0018037,52.5859878 84.7256614,52.1076952 C84.449519,51.6294025 84.6133941,51.0178121 85.0916868,50.7416698 C85.5699794,50.4655274 86.1815698,50.6294025 86.4577122,51.1076952 Z M110.644246,51 C110.920388,51.4782926 110.756513,52.089883 110.27822,52.3660254 C109.799928,52.6421678 109.188337,52.4782926 108.912195,52 C108.636052,51.5217074 108.799928,50.910117 109.27822,50.6339746 C109.756513,50.3578322 110.368103,50.5217074 110.644246,51 Z M44.7807976,50.9211617 C45.05694,51.3994543 44.8930649,52.0110447 44.4147722,52.2871871 C43.9364796,52.5633295 43.3248892,52.3994543 43.0487468,51.9211617 C42.7726045,51.4428691 42.9364796,50.8312786 43.4147722,50.5551363 C43.8930649,50.2789939 44.5046553,50.4428691 44.7807976,50.9211617 Z M68.9673311,50.8134665 C69.2434735,51.2917591 69.0795983,51.9033495 68.6013057,52.1794919 C68.1230131,52.4556343 67.5114227,52.2917591 67.2352803,51.8134665 C66.9591379,51.3351739 67.1230131,50.7235835 67.6013057,50.4474411 C68.0795983,50.1712987 68.6911887,50.3351739 68.9673311,50.8134665 Z M93.1538646,50.7057714 C93.430007,51.184064 93.2661318,51.7956544 92.7878392,52.0717968 C92.3095466,52.3479391 91.6979562,52.184064 91.4218138,51.7057714 C91.1456714,51.2274787 91.3095466,50.6158883 91.7878392,50.339746 C92.2661318,50.0636036 92.8777222,50.2274787 93.1538646,50.7057714 Z M51.4769501,50.5192379 C51.7530924,50.9975305 51.5892173,51.6091209 51.1109247,51.8852633 C50.632632,52.1614057 50.0210416,51.9975305 49.7448993,51.5192379 C49.4687569,51.0409453 49.632632,50.4293549 50.1109247,50.1532125 C50.5892173,49.8770701 51.2008077,50.0409453 51.4769501,50.5192379 Z M75.6634835,50.4115427 C75.9396259,50.8898354 75.7757508,51.5014258 75.2974581,51.7775681 C74.8191655,52.0537105 74.2075751,51.8898354 73.9314327,51.4115427 C73.6552904,50.9332501 73.8191655,50.3216597 74.2974581,50.0455173 C74.7757508,49.769375 75.3873412,49.9332501 75.6634835,50.4115427 Z M99.850017,50.3038476 C100.126159,50.7821402 99.9622842,51.3937306 99.4839916,51.669873 C99.005699,51.9460154 98.3941086,51.7821402 98.1179662,51.3038476 C97.8418238,50.825555 98.005699,50.2139645 98.4839916,49.9378222 C98.9622842,49.6616798 99.5738746,49.825555 99.850017,50.3038476 Z M33.986569,50.2250093 C34.2627114,50.7033019 34.0988362,51.3148923 33.6205436,51.5910347 C33.142251,51.867177 32.5306606,51.7033019 32.2545182,51.2250093 C31.9783758,50.7467166 32.142251,50.1351262 32.6205436,49.8589838 C33.0988362,49.5828415 33.7104266,49.7467166 33.986569,50.2250093 Z M58.1731025,50.1173141 C58.4492449,50.5956067 58.2853697,51.2071971 57.8070771,51.4833395 C57.3287845,51.7594819 56.7171941,51.5956067 56.4410517,51.1173141 C56.1649093,50.6390215 56.3287845,50.0274311 56.8070771,49.7512887 C57.2853697,49.4751463 57.8969601,49.6390215 58.1731025,50.1173141 Z M82.359636,50.0096189 C82.6357783,50.4879116 82.4719032,51.099502 81.9936106,51.3756443 C81.5153179,51.6517867 80.9037275,51.4879116 80.6275852,51.0096189 C80.3514428,50.5313263 80.5153179,49.9197359 80.9936106,49.6435935 C81.4719032,49.3674512 82.0834936,49.5313263 82.359636,50.0096189 Z M106.546169,49.9019238 C106.822312,50.3802164 106.658437,50.9918068 106.180144,51.2679492 C105.701851,51.5440916 105.090261,51.3802164 104.814119,50.9019238 C104.537976,50.4236312 104.701851,49.8120408 105.180144,49.5358984 C105.658437,49.259756 106.270027,49.4236312 106.546169,49.9019238 Z M40.6827214,49.8230855 C40.9588638,50.3013781 40.7949886,50.9129685 40.316696,51.1891109 C39.8384034,51.4652532 39.226813,51.3013781 38.9506706,50.8230855 C38.6745282,50.3447928 38.8384034,49.7332024 39.316696,49.4570601 C39.7949886,49.1809177 40.4065791,49.3447928 40.6827214,49.8230855 Z M64.8692549,49.7153903 C65.1453973,50.1936829 64.9815221,50.8052733 64.5032295,51.0814157 C64.0249369,51.3575581 63.4133465,51.1936829 63.1372041,50.7153903 C62.8610617,50.2370977 63.0249369,49.6255073 63.5032295,49.3493649 C63.9815221,49.0732225 64.5931125,49.2370977 64.8692549,49.7153903 Z M89.0557884,49.6076952 C89.3319308,50.0859878 89.1680556,50.6975782 88.689763,50.9737206 C88.2114704,51.2498629 87.59988,51.0859878 87.3237376,50.6076952 C87.0475952,50.1294025 87.2114704,49.5178121 87.689763,49.2416698 C88.1680556,48.9655274 88.779646,49.1294025 89.0557884,49.6076952 Z M47.3788738,49.4211617 C47.6550162,49.8994543 47.4911411,50.5110447 47.0128484,50.7871871 C46.5345558,51.0633295 45.9229654,50.8994543 45.646823,50.4211617 C45.3706807,49.9428691 45.5345558,49.3312786 46.0128484,49.0551363 C46.4911411,48.7789939 47.1027315,48.9428691 47.3788738,49.4211617 Z M71.5654073,49.3134665 C71.8415497,49.7917591 71.6776745,50.4033495 71.1993819,50.6794919 C70.7210893,50.9556343 70.1094989,50.7917591 69.8333565,50.3134665 C69.5572141,49.8351739 69.7210893,49.2235835 70.1993819,48.9474411 C70.6776745,48.6712987 71.289265,48.8351739 71.5654073,49.3134665 Z M95.7519408,49.2057714 C96.0280832,49.684064 95.864208,50.2956544 95.3859154,50.5717968 C94.9076228,50.8479391 94.2960324,50.684064 94.01989,50.2057714 C93.7437476,49.7274787 93.9076228,49.1158883 94.3859154,48.839746 C94.864208,48.5636036 95.4757984,48.7274787 95.7519408,49.2057714 Z M54.0750263,49.0192379 C54.3511686,49.4975305 54.1872935,50.1091209 53.7090009,50.3852633 C53.2307082,50.6614057 52.6191178,50.4975305 52.3429755,50.0192379 C52.0668331,49.5409453 52.2307082,48.9293549 52.7090009,48.6532125 C53.1872935,48.3770701 53.7988839,48.5409453 54.0750263,49.0192379 Z M78.2615598,48.9115427 C78.5377021,49.3898354 78.373827,50.0014258 77.8955343,50.2775681 C77.4172417,50.5537105 76.8056513,50.3898354 76.5295089,49.9115427 C76.2533666,49.4332501 76.4172417,48.8216597 76.8955343,48.5455173 C77.373827,48.269375 77.9854174,48.4332501 78.2615598,48.9115427 Z M102.448093,48.8038476 C102.724236,49.2821402 102.56036,49.8937306 102.082068,50.169873 C101.603775,50.4460154 100.992185,50.2821402 100.716042,49.8038476 C100.4399,49.325555 100.603775,48.7139645 101.082068,48.4378222 C101.56036,48.1616798 102.171951,48.325555 102.448093,48.8038476 Z M36.5846452,48.7250093 C36.8607876,49.2033019 36.6969124,49.8148923 36.2186198,50.0910347 C35.7403272,50.367177 35.1287368,50.2033019 34.8525944,49.7250093 C34.576452,49.2467166 34.7403272,48.6351262 35.2186198,48.3589838 C35.6969124,48.0828415 36.3085028,48.2467166 36.5846452,48.7250093 Z M60.7711787,48.6173141 C61.0473211,49.0956067 60.8834459,49.7071971 60.4051533,49.9833395 C59.9268607,50.2594819 59.3152703,50.0956067 59.0391279,49.6173141 C58.7629855,49.1390215 58.9268607,48.5274311 59.4051533,48.2512887 C59.8834459,47.9751463 60.4950363,48.1390215 60.7711787,48.6173141 Z M84.9577122,48.5096189 C85.2338545,48.9879116 85.0699794,49.599502 84.5916868,49.8756443 C84.1133941,50.1517867 83.5018037,49.9879116 83.2256614,49.5096189 C82.949519,49.0313263 83.1133941,48.4197359 83.5916868,48.1435935 C84.0699794,47.8674512 84.6815698,48.0313263 84.9577122,48.5096189 Z M109.144246,48.4019238 C109.420388,48.8802164 109.256513,49.4918068 108.77822,49.7679492 C108.299928,50.0440916 107.688337,49.8802164 107.412195,49.4019238 C107.136052,48.9236312 107.299928,48.3120408 107.77822,48.0358984 C108.256513,47.759756 108.868103,47.9236312 109.144246,48.4019238 Z M43.2807976,48.3230855 C43.55694,48.8013781 43.3930649,49.4129685 42.9147722,49.6891109 C42.4364796,49.9652532 41.8248892,49.8013781 41.5487468,49.3230855 C41.2726045,48.8447928 41.4364796,48.2332024 41.9147722,47.9570601 C42.3930649,47.6809177 43.0046553,47.8447928 43.2807976,48.3230855 Z M67.4673311,48.2153903 C67.7434735,48.6936829 67.5795983,49.3052733 67.1013057,49.5814157 C66.6230131,49.8575581 66.0114227,49.6936829 65.7352803,49.2153903 C65.4591379,48.7370977 65.6230131,48.1255073 66.1013057,47.8493649 C66.5795983,47.5732225 67.1911887,47.7370977 67.4673311,48.2153903 Z M91.6538646,48.1076952 C91.930007,48.5859878 91.7661318,49.1975782 91.2878392,49.4737206 C90.8095466,49.7498629 90.1979562,49.5859878 89.9218138,49.1076952 C89.6456714,48.6294025 89.8095466,48.0178121 90.2878392,47.7416698 C90.7661318,47.4655274 91.3777222,47.6294025 91.6538646,48.1076952 Z M49.9769501,47.9211617 C50.2530924,48.3994543 50.0892173,49.0110447 49.6109247,49.2871871 C49.132632,49.5633295 48.5210416,49.3994543 48.2448993,48.9211617 C47.9687569,48.4428691 48.132632,47.8312786 48.6109247,47.5551363 C49.0892173,47.2789939 49.7008077,47.4428691 49.9769501,47.9211617 Z M74.1634835,47.8134665 C74.4396259,48.2917591 74.2757508,48.9033495 73.7974581,49.1794919 C73.3191655,49.4556343 72.7075751,49.2917591 72.4314327,48.8134665 C72.1552904,48.3351739 72.3191655,47.7235835 72.7974581,47.4474411 C73.2757508,47.1712987 73.8873412,47.3351739 74.1634835,47.8134665 Z M98.350017,47.7057714 C98.6261594,48.184064 98.4622842,48.7956544 97.9839916,49.0717968 C97.505699,49.3479391 96.8941086,49.184064 96.6179662,48.7057714 C96.3418238,48.2274787 96.505699,47.6158883 96.9839916,47.339746 C97.4622842,47.0636036 98.0738746,47.2274787 98.350017,47.7057714 Z M56.6731025,47.5192379 C56.9492449,47.9975305 56.7853697,48.6091209 56.3070771,48.8852633 C55.8287845,49.1614057 55.2171941,48.9975305 54.9410517,48.5192379 C54.6649093,48.0409453 54.8287845,47.4293549 55.3070771,47.1532125 C55.7853697,46.8770701 56.3969601,47.0409453 56.6731025,47.5192379 Z M80.859636,47.4115427 C81.1357783,47.8898354 80.9719032,48.5014258 80.4936106,48.7775681 C80.0153179,49.0537105 79.4037275,48.8898354 79.1275852,48.4115427 C78.8514428,47.9332501 79.0153179,47.3216597 79.4936106,47.0455173 C79.9719032,46.769375 80.5834936,46.9332501 80.859636,47.4115427 Z M105.046169,47.3038476 C105.322312,47.7821402 105.158437,48.3937306 104.680144,48.669873 C104.201851,48.9460154 103.590261,48.7821402 103.314119,48.3038476 C103.037976,47.825555 103.201851,47.2139645 103.680144,46.9378222 C104.158437,46.6616798 104.770027,46.825555 105.046169,47.3038476 Z M39.1827214,47.2250093 C39.4588638,47.7033019 39.2949886,48.3148923 38.816696,48.5910347 C38.3384034,48.867177 37.726813,48.7033019 37.4506706,48.2250093 C37.1745282,47.7467166 37.3384034,47.1351262 37.816696,46.8589838 C38.2949886,46.5828415 38.9065791,46.7467166 39.1827214,47.2250093 Z M63.3692549,47.1173141 C63.6453973,47.5956067 63.4815221,48.2071971 63.0032295,48.4833395 C62.5249369,48.7594819 61.9133465,48.5956067 61.6372041,48.1173141 C61.3610617,47.6390215 61.5249369,47.0274311 62.0032295,46.7512887 C62.4815221,46.4751463 63.0931125,46.6390215 63.3692549,47.1173141 Z M87.5557884,47.0096189 C87.8319308,47.4879116 87.6680556,48.099502 87.189763,48.3756443 C86.7114704,48.6517867 86.09988,48.4879116 85.8237376,48.0096189 C85.5475952,47.5313263 85.7114704,46.9197359 86.189763,46.6435935 C86.6680556,46.3674512 87.279646,46.5313263 87.5557884,47.0096189 Z M45.8788738,46.8230855 C46.1550162,47.3013781 45.9911411,47.9129685 45.5128484,48.1891109 C45.0345558,48.4652532 44.4229654,48.3013781 44.146823,47.8230855 C43.8706807,47.3447928 44.0345558,46.7332024 44.5128484,46.4570601 C44.9911411,46.1809177 45.6027315,46.3447928 45.8788738,46.8230855 Z M70.0654073,46.7153903 C70.3415497,47.1936829 70.1776745,47.8052733 69.6993819,48.0814157 C69.2210893,48.3575581 68.6094989,48.1936829 68.3333565,47.7153903 C68.0572141,47.2370977 68.2210893,46.6255073 68.6993819,46.3493649 C69.1776745,46.0732225 69.789265,46.2370977 70.0654073,46.7153903 Z M94.2519408,46.6076952 C94.5280832,47.0859878 94.364208,47.6975782 93.8859154,47.9737206 C93.4076228,48.2498629 92.7960324,48.0859878 92.51989,47.6076952 C92.2437476,47.1294025 92.4076228,46.5178121 92.8859154,46.2416698 C93.364208,45.9655274 93.9757984,46.1294025 94.2519408,46.6076952 Z M52.5750263,46.4211617 C52.8511686,46.8994543 52.6872935,47.5110447 52.2090009,47.7871871 C51.7307082,48.0633295 51.1191178,47.8994543 50.8429755,47.4211617 C50.5668331,46.9428691 50.7307082,46.3312786 51.2090009,46.0551363 C51.6872935,45.7789939 52.2988839,45.9428691 52.5750263,46.4211617 Z M76.7615598,46.3134665 C77.0377021,46.7917591 76.873827,47.4033495 76.3955343,47.6794919 C75.9172417,47.9556343 75.3056513,47.7917591 75.0295089,47.3134665 C74.7533666,46.8351739 74.9172417,46.2235835 75.3955343,45.9474411 C75.873827,45.6712987 76.4854174,45.8351739 76.7615598,46.3134665 Z M100.948093,46.2057714 C101.224236,46.684064 101.06036,47.2956544 100.582068,47.5717968 C100.103775,47.8479391 99.4921848,47.684064 99.2160424,47.2057714 C98.9399,46.7274787 99.1037752,46.1158883 99.5820678,45.839746 C100.06036,45.5636036 100.671951,45.7274787 100.948093,46.2057714 Z M59.2711787,46.0192379 C59.5473211,46.4975305 59.3834459,47.1091209 58.9051533,47.3852633 C58.4268607,47.6614057 57.8152703,47.4975305 57.5391279,47.0192379 C57.2629855,46.5409453 57.4268607,45.9293549 57.9051533,45.6532125 C58.3834459,45.3770701 58.9950363,45.5409453 59.2711787,46.0192379 Z M83.4577122,45.9115427 C83.7338545,46.3898354 83.5699794,47.0014258 83.0916868,47.2775681 C82.6133941,47.5537105 82.0018037,47.3898354 81.7256614,46.9115427 C81.449519,46.4332501 81.6133941,45.8216597 82.0916868,45.5455173 C82.5699794,45.269375 83.1815698,45.4332501 83.4577122,45.9115427 Z M107.644246,45.8038476 C107.920388,46.2821402 107.756513,46.8937306 107.27822,47.169873 C106.799928,47.4460154 106.188337,47.2821402 105.912195,46.8038476 C105.636052,46.325555 105.799928,45.7139645 106.27822,45.4378222 C106.756513,45.1616798 107.368103,45.325555 107.644246,45.8038476 Z M41.7807976,45.7250093 C42.05694,46.2033019 41.8930649,46.8148923 41.4147722,47.0910347 C40.9364796,47.367177 40.3248892,47.2033019 40.0487468,46.7250093 C39.7726045,46.2467166 39.9364796,45.6351262 40.4147722,45.3589838 C40.8930649,45.0828415 41.5046553,45.2467166 41.7807976,45.7250093 Z M65.9673311,45.6173141 C66.2434735,46.0956067 66.0795983,46.7071971 65.6013057,46.9833395 C65.1230131,47.2594819 64.5114227,47.0956067 64.2352803,46.6173141 C63.9591379,46.1390215 64.1230131,45.5274311 64.6013057,45.2512887 C65.0795983,44.9751463 65.6911887,45.1390215 65.9673311,45.6173141 Z M90.1538646,45.5096189 C90.430007,45.9879116 90.2661318,46.599502 89.7878392,46.8756443 C89.3095466,47.1517867 88.6979562,46.9879116 88.4218138,46.5096189 C88.1456714,46.0313263 88.3095466,45.4197359 88.7878392,45.1435935 C89.2661318,44.8674512 89.8777222,45.0313263 90.1538646,45.5096189 Z M48.4769501,45.3230855 C48.7530924,45.8013781 48.5892173,46.4129685 48.1109247,46.6891109 C47.632632,46.9652532 47.0210416,46.8013781 46.7448993,46.3230855 C46.4687569,45.8447928 46.632632,45.2332024 47.1109247,44.9570601 C47.5892173,44.6809177 48.2008077,44.8447928 48.4769501,45.3230855 Z M72.6634835,45.2153903 C72.9396259,45.6936829 72.7757508,46.3052733 72.2974581,46.5814157 C71.8191655,46.8575581 71.2075751,46.6936829 70.9314327,46.2153903 C70.6552904,45.7370977 70.8191655,45.1255073 71.2974581,44.8493649 C71.7757508,44.5732225 72.3873412,44.7370977 72.6634835,45.2153903 Z M96.850017,45.1076952 C97.1261594,45.5859878 96.9622842,46.1975782 96.4839916,46.4737206 C96.005699,46.7498629 95.3941086,46.5859878 95.1179662,46.1076952 C94.8418238,45.6294025 95.005699,45.0178121 95.4839916,44.7416698 C95.9622842,44.4655274 96.5738746,44.6294025 96.850017,45.1076952 Z M55.1731025,44.9211617 C55.4492449,45.3994543 55.2853697,46.0110447 54.8070771,46.2871871 C54.3287845,46.5633295 53.7171941,46.3994543 53.4410517,45.9211617 C53.1649093,45.4428691 53.3287845,44.8312786 53.8070771,44.5551363 C54.2853697,44.2789939 54.8969601,44.4428691 55.1731025,44.9211617 Z M79.359636,44.8134665 C79.6357783,45.2917591 79.4719032,45.9033495 78.9936106,46.1794919 C78.5153179,46.4556343 77.9037275,46.2917591 77.6275852,45.8134665 C77.3514428,45.3351739 77.5153179,44.7235835 77.9936106,44.4474411 C78.4719032,44.1712987 79.0834936,44.3351739 79.359636,44.8134665 Z M103.546169,44.7057714 C103.822312,45.184064 103.658437,45.7956544 103.180144,46.0717968 C102.701851,46.3479391 102.090261,46.184064 101.814119,45.7057714 C101.537976,45.2274787 101.701851,44.6158883 102.180144,44.339746 C102.658437,44.0636036 103.270027,44.2274787 103.546169,44.7057714 Z M61.8692549,44.5192379 C62.1453973,44.9975305 61.9815221,45.6091209 61.5032295,45.8852633 C61.0249369,46.1614057 60.4133465,45.9975305 60.1372041,45.5192379 C59.8610617,45.0409453 60.0249369,44.4293549 60.5032295,44.1532125 C60.9815221,43.8770701 61.5931125,44.0409453 61.8692549,44.5192379 Z M86.0557884,44.4115427 C86.3319308,44.8898354 86.1680556,45.5014258 85.689763,45.7775681 C85.2114704,46.0537105 84.59988,45.8898354 84.3237376,45.4115427 C84.0475952,44.9332501 84.2114704,44.3216597 84.689763,44.0455173 C85.1680556,43.769375 85.779646,43.9332501 86.0557884,44.4115427 Z M44.3788738,44.2250093 C44.6550162,44.7033019 44.4911411,45.3148923 44.0128484,45.5910347 C43.5345558,45.867177 42.9229654,45.7033019 42.646823,45.2250093 C42.3706807,44.7467166 42.5345558,44.1351262 43.0128484,43.8589838 C43.4911411,43.5828415 44.1027315,43.7467166 44.3788738,44.2250093 Z M68.5654073,44.1173141 C68.8415497,44.5956067 68.6776745,45.2071971 68.1993819,45.4833395 C67.7210893,45.7594819 67.1094989,45.5956067 66.8333565,45.1173141 C66.5572141,44.6390215 66.7210893,44.0274311 67.1993819,43.7512887 C67.6776745,43.4751463 68.289265,43.6390215 68.5654073,44.1173141 Z M92.7519408,44.0096189 C93.0280832,44.4879116 92.864208,45.099502 92.3859154,45.3756443 C91.9076228,45.6517867 91.2960324,45.4879116 91.01989,45.0096189 C90.7437476,44.5313263 90.9076228,43.9197359 91.3859154,43.6435935 C91.864208,43.3674512 92.4757984,43.5313263 92.7519408,44.0096189 Z M51.0750263,43.8230855 C51.3511686,44.3013781 51.1872935,44.9129685 50.7090009,45.1891109 C50.2307082,45.4652532 49.6191178,45.3013781 49.3429755,44.8230855 C49.0668331,44.3447928 49.2307082,43.7332024 49.7090009,43.4570601 C50.1872935,43.1809177 50.7988839,43.3447928 51.0750263,43.8230855 Z M75.2615598,43.7153903 C75.5377021,44.1936829 75.373827,44.8052733 74.8955343,45.0814157 C74.4172417,45.3575581 73.8056513,45.1936829 73.5295089,44.7153903 C73.2533666,44.2370977 73.4172417,43.6255073 73.8955343,43.3493649 C74.373827,43.0732225 74.9854174,43.2370977 75.2615598,43.7153903 Z M99.4480932,43.6076952 C99.7242356,44.0859878 99.5603605,44.6975782 99.0820678,44.9737206 C98.6037752,45.2498629 97.9921848,45.0859878 97.7160424,44.6076952 C97.4399,44.1294025 97.6037752,43.5178121 98.0820678,43.2416698 C98.5603605,42.9655274 99.1719509,43.1294025 99.4480932,43.6076952 Z M57.7711787,43.4211617 C58.0473211,43.8994543 57.8834459,44.5110447 57.4051533,44.7871871 C56.9268607,45.0633295 56.3152703,44.8994543 56.0391279,44.4211617 C55.7629855,43.9428691 55.9268607,43.3312786 56.4051533,43.0551363 C56.8834459,42.7789939 57.4950363,42.9428691 57.7711787,43.4211617 Z M81.9577122,43.3134665 C82.2338545,43.7917591 82.0699794,44.4033495 81.5916868,44.6794919 C81.1133941,44.9556343 80.5018037,44.7917591 80.2256614,44.3134665 C79.949519,43.8351739 80.1133941,43.2235835 80.5916868,42.9474411 C81.0699794,42.6712987 81.6815698,42.8351739 81.9577122,43.3134665 Z M106.144246,43.2057714 C106.420388,43.684064 106.256513,44.2956544 105.77822,44.5717968 C105.299928,44.8479391 104.688337,44.684064 104.412195,44.2057714 C104.136052,43.7274787 104.299928,43.1158883 104.77822,42.839746 C105.256513,42.5636036 105.868103,42.7274787 106.144246,43.2057714 Z M64.4673311,43.0192379 C64.7434735,43.4975305 64.5795983,44.1091209 64.1013057,44.3852633 C63.6230131,44.6614057 63.0114227,44.4975305 62.7352803,44.0192379 C62.4591379,43.5409453 62.6230131,42.9293549 63.1013057,42.6532125 C63.5795983,42.3770701 64.1911887,42.5409453 64.4673311,43.0192379 Z M88.6538646,42.9115427 C88.930007,43.3898354 88.7661318,44.0014258 88.2878392,44.2775681 C87.8095466,44.5537105 87.1979562,44.3898354 86.9218138,43.9115427 C86.6456714,43.4332501 86.8095466,42.8216597 87.2878392,42.5455173 C87.7661318,42.269375 88.3777222,42.4332501 88.6538646,42.9115427 Z M46.9769501,42.7250093 C47.2530924,43.2033019 47.0892173,43.8148923 46.6109247,44.0910347 C46.132632,44.367177 45.5210416,44.2033019 45.2448993,43.7250093 C44.9687569,43.2467166 45.132632,42.6351262 45.6109247,42.3589838 C46.0892173,42.0828415 46.7008077,42.2467166 46.9769501,42.7250093 Z M71.1634835,42.6173141 C71.4396259,43.0956067 71.2757508,43.7071971 70.7974581,43.9833395 C70.3191655,44.2594819 69.7075751,44.0956067 69.4314327,43.6173141 C69.1552904,43.1390215 69.3191655,42.5274311 69.7974581,42.2512887 C70.2757508,41.9751463 70.8873412,42.1390215 71.1634835,42.6173141 Z M95.350017,42.5096189 C95.6261594,42.9879116 95.4622842,43.599502 94.9839916,43.8756443 C94.505699,44.1517867 93.8941086,43.9879116 93.6179662,43.5096189 C93.3418238,43.0313263 93.505699,42.4197359 93.9839916,42.1435935 C94.4622842,41.8674512 95.0738746,42.0313263 95.350017,42.5096189 Z M53.6731025,42.3230855 C53.9492449,42.8013781 53.7853697,43.4129685 53.3070771,43.6891109 C52.8287845,43.9652532 52.2171941,43.8013781 51.9410517,43.3230855 C51.6649093,42.8447928 51.8287845,42.2332024 52.3070771,41.9570601 C52.7853697,41.6809177 53.3969601,41.8447928 53.6731025,42.3230855 Z M77.859636,42.2153903 C78.1357783,42.6936829 77.9719032,43.3052733 77.4936106,43.5814157 C77.0153179,43.8575581 76.4037275,43.6936829 76.1275852,43.2153903 C75.8514428,42.7370977 76.0153179,42.1255073 76.4936106,41.8493649 C76.9719032,41.5732225 77.5834936,41.7370977 77.859636,42.2153903 Z M102.046169,42.1076952 C102.322312,42.5859878 102.158437,43.1975782 101.680144,43.4737206 C101.201851,43.7498629 100.590261,43.5859878 100.314119,43.1076952 C100.037976,42.6294025 100.201851,42.0178121 100.680144,41.7416698 C101.158437,41.4655274 101.770027,41.6294025 102.046169,42.1076952 Z M60.3692549,41.9211617 C60.6453973,42.3994543 60.4815221,43.0110447 60.0032295,43.2871871 C59.5249369,43.5633295 58.9133465,43.3994543 58.6372041,42.9211617 C58.3610617,42.4428691 58.5249369,41.8312786 59.0032295,41.5551363 C59.4815221,41.2789939 60.0931125,41.4428691 60.3692549,41.9211617 Z M84.5557884,41.8134665 C84.8319308,42.2917591 84.6680556,42.9033495 84.189763,43.1794919 C83.7114704,43.4556343 83.09988,43.2917591 82.8237376,42.8134665 C82.5475952,42.3351739 82.7114704,41.7235835 83.189763,41.4474411 C83.6680556,41.1712987 84.279646,41.3351739 84.5557884,41.8134665 Z M67.0654073,41.5192379 C67.3415497,41.9975305 67.1776745,42.6091209 66.6993819,42.8852633 C66.2210893,43.1614057 65.6094989,42.9975305 65.3333565,42.5192379 C65.0572141,42.0409453 65.2210893,41.4293549 65.6993819,41.1532125 C66.1776745,40.8770701 66.789265,41.0409453 67.0654073,41.5192379 Z M91.2519408,41.4115427 C91.5280832,41.8898354 91.364208,42.5014258 90.8859154,42.7775681 C90.4076228,43.0537105 89.7960324,42.8898354 89.51989,42.4115427 C89.2437476,41.9332501 89.4076228,41.3216597 89.8859154,41.0455173 C90.364208,40.769375 90.9757984,40.9332501 91.2519408,41.4115427 Z M49.5750263,41.2250093 C49.8511686,41.7033019 49.6872935,42.3148923 49.2090009,42.5910347 C48.7307082,42.867177 48.1191178,42.7033019 47.8429755,42.2250093 C47.5668331,41.7467166 47.7307082,41.1351262 48.2090009,40.8589838 C48.6872935,40.5828415 49.2988839,40.7467166 49.5750263,41.2250093 Z M73.7615598,41.1173141 C74.0377021,41.5956067 73.873827,42.2071971 73.3955343,42.4833395 C72.9172417,42.7594819 72.3056513,42.5956067 72.0295089,42.1173141 C71.7533666,41.6390215 71.9172417,41.0274311 72.3955343,40.7512887 C72.873827,40.4751463 73.4854174,40.6390215 73.7615598,41.1173141 Z M97.9480932,41.0096189 C98.2242356,41.4879116 98.0603605,42.099502 97.5820678,42.3756443 C97.1037752,42.6517867 96.4921848,42.4879116 96.2160424,42.0096189 C95.9399,41.5313263 96.1037752,40.9197359 96.5820678,40.6435935 C97.0603605,40.3674512 97.6719509,40.5313263 97.9480932,41.0096189 Z M56.2711787,40.8230855 C56.5473211,41.3013781 56.3834459,41.9129685 55.9051533,42.1891109 C55.4268607,42.4652532 54.8152703,42.3013781 54.5391279,41.8230855 C54.2629855,41.3447928 54.4268607,40.7332024 54.9051533,40.4570601 C55.3834459,40.1809177 55.9950363,40.3447928 56.2711787,40.8230855 Z M80.4577122,40.7153903 C80.7338545,41.1936829 80.5699794,41.8052733 80.0916868,42.0814157 C79.6133941,42.3575581 79.0018037,42.1936829 78.7256614,41.7153903 C78.449519,41.2370977 78.6133941,40.6255073 79.0916868,40.3493649 C79.5699794,40.0732225 80.1815698,40.2370977 80.4577122,40.7153903 Z M104.644246,40.6076952 C104.920388,41.0859878 104.756513,41.6975782 104.27822,41.9737206 C103.799928,42.2498629 103.188337,42.0859878 102.912195,41.6076952 C102.636052,41.1294025 102.799928,40.5178121 103.27822,40.2416698 C103.756513,39.9655274 104.368103,40.1294025 104.644246,40.6076952 Z M62.9673311,40.4211617 C63.2434735,40.8994543 63.0795983,41.5110447 62.6013057,41.7871871 C62.1230131,42.0633295 61.5114227,41.8994543 61.2352803,41.4211617 C60.9591379,40.9428691 61.1230131,40.3312786 61.6013057,40.0551363 C62.0795983,39.7789939 62.6911887,39.9428691 62.9673311,40.4211617 Z M87.1538646,40.3134665 C87.430007,40.7917591 87.2661318,41.4033495 86.7878392,41.6794919 C86.3095466,41.9556343 85.6979562,41.7917591 85.4218138,41.3134665 C85.1456714,40.8351739 85.3095466,40.2235835 85.7878392,39.9474411 C86.2661318,39.6712987 86.8777222,39.8351739 87.1538646,40.3134665 Z M69.6634835,40.0192379 C69.9396259,40.4975305 69.7757508,41.1091209 69.2974581,41.3852633 C68.8191655,41.6614057 68.2075751,41.4975305 67.9314327,41.0192379 C67.6552904,40.5409453 67.8191655,39.9293549 68.2974581,39.6532125 C68.7757508,39.3770701 69.3873412,39.5409453 69.6634835,40.0192379 Z M93.850017,39.9115427 C94.1261594,40.3898354 93.9622842,41.0014258 93.4839916,41.2775681 C93.005699,41.5537105 92.3941086,41.3898354 92.1179662,40.9115427 C91.8418238,40.4332501 92.005699,39.8216597 92.4839916,39.5455173 C92.9622842,39.269375 93.5738746,39.4332501 93.850017,39.9115427 Z M52.1731025,39.7250093 C52.4492449,40.2033019 52.2853697,40.8148923 51.8070771,41.0910347 C51.3287845,41.367177 50.7171941,41.2033019 50.4410517,40.7250093 C50.1649093,40.2467166 50.3287845,39.6351262 50.8070771,39.3589838 C51.2853697,39.0828415 51.8969601,39.2467166 52.1731025,39.7250093 Z M76.359636,39.6173141 C76.6357783,40.0956067 76.4719032,40.7071971 75.9936106,40.9833395 C75.5153179,41.2594819 74.9037275,41.0956067 74.6275852,40.6173141 C74.3514428,40.1390215 74.5153179,39.5274311 74.9936106,39.2512887 C75.4719032,38.9751463 76.0834936,39.1390215 76.359636,39.6173141 Z M100.546169,39.5096189 C100.822312,39.9879116 100.658437,40.599502 100.180144,40.8756443 C99.7018514,41.1517867 99.090261,40.9879116 98.8141186,40.5096189 C98.5379763,40.0313263 98.7018514,39.4197359 99.180144,39.1435935 C99.6584367,38.8674512 100.270027,39.0313263 100.546169,39.5096189 Z M58.8692549,39.3230855 C59.1453973,39.8013781 58.9815221,40.4129685 58.5032295,40.6891109 C58.0249369,40.9652532 57.4133465,40.8013781 57.1372041,40.3230855 C56.8610617,39.8447928 57.0249369,39.2332024 57.5032295,38.9570601 C57.9815221,38.6809177 58.5931125,38.8447928 58.8692549,39.3230855 Z M83.0557884,39.2153903 C83.3319308,39.6936829 83.1680556,40.3052733 82.689763,40.5814157 C82.2114704,40.8575581 81.59988,40.6936829 81.3237376,40.2153903 C81.0475952,39.7370977 81.2114704,39.1255073 81.689763,38.8493649 C82.1680556,38.5732225 82.779646,38.7370977 83.0557884,39.2153903 Z M65.5654073,38.9211617 C65.8415497,39.3994543 65.6776745,40.0110447 65.1993819,40.2871871 C64.7210893,40.5633295 64.1094989,40.3994543 63.8333565,39.9211617 C63.5572141,39.4428691 63.7210893,38.8312786 64.1993819,38.5551363 C64.6776745,38.2789939 65.289265,38.4428691 65.5654073,38.9211617 Z M89.7519408,38.8134665 C90.0280832,39.2917591 89.864208,39.9033495 89.3859154,40.1794919 C88.9076228,40.4556343 88.2960324,40.2917591 88.01989,39.8134665 C87.7437476,39.3351739 87.9076228,38.7235835 88.3859154,38.4474411 C88.864208,38.1712987 89.4757984,38.3351739 89.7519408,38.8134665 Z M72.2615598,38.5192379 C72.5377021,38.9975305 72.373827,39.6091209 71.8955343,39.8852633 C71.4172417,40.1614057 70.8056513,39.9975305 70.5295089,39.5192379 C70.2533666,39.0409453 70.4172417,38.4293549 70.8955343,38.1532125 C71.373827,37.8770701 71.9854174,38.0409453 72.2615598,38.5192379 Z M96.4480932,38.4115427 C96.7242356,38.8898354 96.5603605,39.5014258 96.0820678,39.7775681 C95.6037752,40.0537105 94.9921848,39.8898354 94.7160424,39.4115427 C94.4399,38.9332501 94.6037752,38.3216597 95.0820678,38.0455173 C95.5603605,37.769375 96.1719509,37.9332501 96.4480932,38.4115427 Z M54.7711787,38.2250093 C55.0473211,38.7033019 54.8834459,39.3148923 54.4051533,39.5910347 C53.9268607,39.867177 53.3152703,39.7033019 53.0391279,39.2250093 C52.7629855,38.7467166 52.9268607,38.1351262 53.4051533,37.8589838 C53.8834459,37.5828415 54.4950363,37.7467166 54.7711787,38.2250093 Z M78.9577122,38.1173141 C79.2338545,38.5956067 79.0699794,39.2071971 78.5916868,39.4833395 C78.1133941,39.7594819 77.5018037,39.5956067 77.2256614,39.1173141 C76.949519,38.6390215 77.1133941,38.0274311 77.5916868,37.7512887 C78.0699794,37.4751463 78.6815698,37.6390215 78.9577122,38.1173141 Z M103.144246,38.0096189 C103.420388,38.4879116 103.256513,39.099502 102.77822,39.3756443 C102.299928,39.6517867 101.688337,39.4879116 101.412195,39.0096189 C101.136052,38.5313263 101.299928,37.9197359 101.77822,37.6435935 C102.256513,37.3674512 102.868103,37.5313263 103.144246,38.0096189 Z M61.4673311,37.8230855 C61.7434735,38.3013781 61.5795983,38.9129685 61.1013057,39.1891109 C60.6230131,39.4652532 60.0114227,39.3013781 59.7352803,38.8230855 C59.4591379,38.3447928 59.6230131,37.7332024 60.1013057,37.4570601 C60.5795983,37.1809177 61.1911887,37.3447928 61.4673311,37.8230855 Z M85.6538646,37.7153903 C85.930007,38.1936829 85.7661318,38.8052733 85.2878392,39.0814157 C84.8095466,39.3575581 84.1979562,39.1936829 83.9218138,38.7153903 C83.6456714,38.2370977 83.8095466,37.6255073 84.2878392,37.3493649 C84.7661318,37.0732225 85.3777222,37.2370977 85.6538646,37.7153903 Z M68.1634835,37.4211617 C68.4396259,37.8994543 68.2757508,38.5110447 67.7974581,38.7871871 C67.3191655,39.0633295 66.7075751,38.8994543 66.4314327,38.4211617 C66.1552904,37.9428691 66.3191655,37.3312786 66.7974581,37.0551363 C67.2757508,36.7789939 67.8873412,36.9428691 68.1634835,37.4211617 Z M92.350017,37.3134665 C92.6261594,37.7917591 92.4622842,38.4033495 91.9839916,38.6794919 C91.505699,38.9556343 90.8941086,38.7917591 90.6179662,38.3134665 C90.3418238,37.8351739 90.505699,37.2235835 90.9839916,36.9474411 C91.4622842,36.6712987 92.0738746,36.8351739 92.350017,37.3134665 Z M74.859636,37.0192379 C75.1357783,37.4975305 74.9719032,38.1091209 74.4936106,38.3852633 C74.0153179,38.6614057 73.4037275,38.4975305 73.1275852,38.0192379 C72.8514428,37.5409453 73.0153179,36.9293549 73.4936106,36.6532125 C73.9719032,36.3770701 74.5834936,36.5409453 74.859636,37.0192379 Z M99.0461694,36.9115427 C99.3223118,37.3898354 99.1584367,38.0014258 98.680144,38.2775681 C98.2018514,38.5537105 97.590261,38.3898354 97.3141186,37.9115427 C97.0379763,37.4332501 97.2018514,36.8216597 97.680144,36.5455173 C98.1584367,36.269375 98.7700271,36.4332501 99.0461694,36.9115427 Z M57.3692549,36.7250093 C57.6453973,37.2033019 57.4815221,37.8148923 57.0032295,38.0910347 C56.5249369,38.367177 55.9133465,38.2033019 55.6372041,37.7250093 C55.3610617,37.2467166 55.5249369,36.6351262 56.0032295,36.3589838 C56.4815221,36.0828415 57.0931125,36.2467166 57.3692549,36.7250093 Z M81.5557884,36.6173141 C81.8319308,37.0956067 81.6680556,37.7071971 81.189763,37.9833395 C80.7114704,38.2594819 80.09988,38.0956067 79.8237376,37.6173141 C79.5475952,37.1390215 79.7114704,36.5274311 80.189763,36.2512887 C80.6680556,35.9751463 81.279646,36.1390215 81.5557884,36.6173141 Z M64.0654073,36.3230855 C64.3415497,36.8013781 64.1776745,37.4129685 63.6993819,37.6891109 C63.2210893,37.9652532 62.6094989,37.8013781 62.3333565,37.3230855 C62.0572141,36.8447928 62.2210893,36.2332024 62.6993819,35.9570601 C63.1776745,35.6809177 63.789265,35.8447928 64.0654073,36.3230855 Z M88.2519408,36.2153903 C88.5280832,36.6936829 88.364208,37.3052733 87.8859154,37.5814157 C87.4076228,37.8575581 86.7960324,37.6936829 86.51989,37.2153903 C86.2437476,36.7370977 86.4076228,36.1255073 86.8859154,35.8493649 C87.364208,35.5732225 87.9757984,35.7370977 88.2519408,36.2153903 Z M70.7615598,35.9211617 C71.0377021,36.3994543 70.873827,37.0110447 70.3955343,37.2871871 C69.9172417,37.5633295 69.3056513,37.3994543 69.0295089,36.9211617 C68.7533666,36.4428691 68.9172417,35.8312786 69.3955343,35.5551363 C69.873827,35.2789939 70.4854174,35.4428691 70.7615598,35.9211617 Z M94.9480932,35.8134665 C95.2242356,36.2917591 95.0603605,36.9033495 94.5820678,37.1794919 C94.1037752,37.4556343 93.4921848,37.2917591 93.2160424,36.8134665 C92.9399,36.3351739 93.1037752,35.7235835 93.5820678,35.4474411 C94.0603605,35.1712987 94.6719509,35.3351739 94.9480932,35.8134665 Z M77.4577122,35.5192379 C77.7338545,35.9975305 77.5699794,36.6091209 77.0916868,36.8852633 C76.6133941,37.1614057 76.0018037,36.9975305 75.7256614,36.5192379 C75.449519,36.0409453 75.6133941,35.4293549 76.0916868,35.1532125 C76.5699794,34.8770701 77.1815698,35.0409453 77.4577122,35.5192379 Z M101.644246,35.4115427 C101.920388,35.8898354 101.756513,36.5014258 101.27822,36.7775681 C100.799928,37.0537105 100.188337,36.8898354 99.9121948,36.4115427 C99.6360525,35.9332501 99.7999276,35.3216597 100.27822,35.0455173 C100.756513,34.769375 101.368103,34.9332501 101.644246,35.4115427 Z M59.9673311,35.2250093 C60.2434735,35.7033019 60.0795983,36.3148923 59.6013057,36.5910347 C59.1230131,36.867177 58.5114227,36.7033019 58.2352803,36.2250093 C57.9591379,35.7467166 58.1230131,35.1351262 58.6013057,34.8589838 C59.0795983,34.5828415 59.6911887,34.7467166 59.9673311,35.2250093 Z M84.1538646,35.1173141 C84.430007,35.5956067 84.2661318,36.2071971 83.7878392,36.4833395 C83.3095466,36.7594819 82.6979562,36.5956067 82.4218138,36.1173141 C82.1456714,35.6390215 82.3095466,35.0274311 82.7878392,34.7512887 C83.2661318,34.4751463 83.8777222,34.6390215 84.1538646,35.1173141 Z M66.6634835,34.8230855 C66.9396259,35.3013781 66.7757508,35.9129685 66.2974581,36.1891109 C65.8191655,36.4652532 65.2075751,36.3013781 64.9314327,35.8230855 C64.6552904,35.3447928 64.8191655,34.7332024 65.2974581,34.4570601 C65.7757508,34.1809177 66.3873412,34.3447928 66.6634835,34.8230855 Z M90.850017,34.7153903 C91.1261594,35.1936829 90.9622842,35.8052733 90.4839916,36.0814157 C90.005699,36.3575581 89.3941086,36.1936829 89.1179662,35.7153903 C88.8418238,35.2370977 89.005699,34.6255073 89.4839916,34.3493649 C89.9622842,34.0732225 90.5738746,34.2370977 90.850017,34.7153903 Z M73.359636,34.4211617 C73.6357783,34.8994543 73.4719032,35.5110447 72.9936106,35.7871871 C72.5153179,36.0633295 71.9037275,35.8994543 71.6275852,35.4211617 C71.3514428,34.9428691 71.5153179,34.3312786 71.9936106,34.0551363 C72.4719032,33.7789939 73.0834936,33.9428691 73.359636,34.4211617 Z M97.5461694,34.3134665 C97.8223118,34.7917591 97.6584367,35.4033495 97.180144,35.6794919 C96.7018514,35.9556343 96.090261,35.7917591 95.8141186,35.3134665 C95.5379763,34.8351739 95.7018514,34.2235835 96.180144,33.9474411 C96.6584367,33.6712987 97.2700271,33.8351739 97.5461694,34.3134665 Z M80.0557884,34.0192379 C80.3319308,34.4975305 80.1680556,35.1091209 79.689763,35.3852633 C79.2114704,35.6614057 78.59988,35.4975305 78.3237376,35.0192379 C78.0475952,34.5409453 78.2114704,33.9293549 78.689763,33.6532125 C79.1680556,33.3770701 79.779646,33.5409453 80.0557884,34.0192379 Z M62.5654073,33.7250093 C62.8415497,34.2033019 62.6776745,34.8148923 62.1993819,35.0910347 C61.7210893,35.367177 61.1094989,35.2033019 60.8333565,34.7250093 C60.5572141,34.2467166 60.7210893,33.6351262 61.1993819,33.3589838 C61.6776745,33.0828415 62.289265,33.2467166 62.5654073,33.7250093 Z M86.7519408,33.6173141 C87.0280832,34.0956067 86.864208,34.7071971 86.3859154,34.9833395 C85.9076228,35.2594819 85.2960324,35.0956067 85.01989,34.6173141 C84.7437476,34.1390215 84.9076228,33.5274311 85.3859154,33.2512887 C85.864208,32.9751463 86.4757984,33.1390215 86.7519408,33.6173141 Z M69.2615598,33.3230855 C69.5377021,33.8013781 69.373827,34.4129685 68.8955343,34.6891109 C68.4172417,34.9652532 67.8056513,34.8013781 67.5295089,34.3230855 C67.2533666,33.8447928 67.4172417,33.2332024 67.8955343,32.9570601 C68.373827,32.6809177 68.9854174,32.8447928 69.2615598,33.3230855 Z M93.4480932,33.2153903 C93.7242356,33.6936829 93.5603605,34.3052733 93.0820678,34.5814157 C92.6037752,34.8575581 91.9921848,34.6936829 91.7160424,34.2153903 C91.4399,33.7370977 91.6037752,33.1255073 92.0820678,32.8493649 C92.5603605,32.5732225 93.1719509,32.7370977 93.4480932,33.2153903 Z M75.9577122,32.9211617 C76.2338545,33.3994543 76.0699794,34.0110447 75.5916868,34.2871871 C75.1133941,34.5633295 74.5018037,34.3994543 74.2256614,33.9211617 C73.949519,33.4428691 74.1133941,32.8312786 74.5916868,32.5551363 C75.0699794,32.2789939 75.6815698,32.4428691 75.9577122,32.9211617 Z M100.144246,32.8134665 C100.420388,33.2917591 100.256513,33.9033495 99.7782202,34.1794919 C99.2999276,34.4556343 98.6883372,34.2917591 98.4121948,33.8134665 C98.1360525,33.3351739 98.2999276,32.7235835 98.7782202,32.4474411 C99.2565129,32.1712987 99.8681033,32.3351739 100.144246,32.8134665 Z M82.6538646,32.5192379 C82.930007,32.9975305 82.7661318,33.6091209 82.2878392,33.8852633 C81.8095466,34.1614057 81.1979562,33.9975305 80.9218138,33.5192379 C80.6456714,33.0409453 80.8095466,32.4293549 81.2878392,32.1532125 C81.7661318,31.8770701 82.3777222,32.0409453 82.6538646,32.5192379 Z M65.1634835,32.2250093 C65.4396259,32.7033019 65.2757508,33.3148923 64.7974581,33.5910347 C64.3191655,33.867177 63.7075751,33.7033019 63.4314327,33.2250093 C63.1552904,32.7467166 63.3191655,32.1351262 63.7974581,31.8589838 C64.2757508,31.5828415 64.8873412,31.7467166 65.1634835,32.2250093 Z M89.350017,32.1173141 C89.6261594,32.5956067 89.4622842,33.2071971 88.9839916,33.4833395 C88.505699,33.7594819 87.8941086,33.5956067 87.6179662,33.1173141 C87.3418238,32.6390215 87.505699,32.0274311 87.9839916,31.7512887 C88.4622842,31.4751463 89.0738746,31.6390215 89.350017,32.1173141 Z M71.859636,31.8230855 C72.1357783,32.3013781 71.9719032,32.9129685 71.4936106,33.1891109 C71.0153179,33.4652532 70.4037275,33.3013781 70.1275852,32.8230855 C69.8514428,32.3447928 70.0153179,31.7332024 70.4936106,31.4570601 C70.9719032,31.1809177 71.5834936,31.3447928 71.859636,31.8230855 Z M96.0461694,31.7153903 C96.3223118,32.1936829 96.1584367,32.8052733 95.680144,33.0814157 C95.2018514,33.3575581 94.590261,33.1936829 94.3141186,32.7153903 C94.0379763,32.2370977 94.2018514,31.6255073 94.680144,31.3493649 C95.1584367,31.0732225 95.7700271,31.2370977 96.0461694,31.7153903 Z M78.5557884,31.4211617 C78.8319308,31.8994543 78.6680556,32.5110447 78.189763,32.7871871 C77.7114704,33.0633295 77.09988,32.8994543 76.8237376,32.4211617 C76.5475952,31.9428691 76.7114704,31.3312786 77.189763,31.0551363 C77.6680556,30.7789939 78.279646,30.9428691 78.5557884,31.4211617 Z M85.2519408,31.0192379 C85.5280832,31.4975305 85.364208,32.1091209 84.8859154,32.3852633 C84.4076228,32.6614057 83.7960324,32.4975305 83.51989,32.0192379 C83.2437476,31.5409453 83.4076228,30.9293549 83.8859154,30.6532125 C84.364208,30.3770701 84.9757984,30.5409453 85.2519408,31.0192379 Z M67.7615598,30.7250093 C68.0377021,31.2033019 67.873827,31.8148923 67.3955343,32.0910347 C66.9172417,32.367177 66.3056513,32.2033019 66.0295089,31.7250093 C65.7533666,31.2467166 65.9172417,30.6351262 66.3955343,30.3589838 C66.873827,30.0828415 67.4854174,30.2467166 67.7615598,30.7250093 Z M91.9480932,30.6173141 C92.2242356,31.0956067 92.0603605,31.7071971 91.5820678,31.9833395 C91.1037752,32.2594819 90.4921848,32.0956067 90.2160424,31.6173141 C89.9399,31.1390215 90.1037752,30.5274311 90.5820678,30.2512887 C91.0603605,29.9751463 91.6719509,30.1390215 91.9480932,30.6173141 Z M74.4577122,30.3230855 C74.7338545,30.8013781 74.5699794,31.4129685 74.0916868,31.6891109 C73.6133941,31.9652532 73.0018037,31.8013781 72.7256614,31.3230855 C72.449519,30.8447928 72.6133941,30.2332024 73.0916868,29.9570601 C73.5699794,29.6809177 74.1815698,29.8447928 74.4577122,30.3230855 Z M98.6442457,30.2153903 C98.920388,30.6936829 98.7565129,31.3052733 98.2782202,31.5814157 C97.7999276,31.8575581 97.1883372,31.6936829 96.9121948,31.2153903 C96.6360525,30.7370977 96.7999276,30.1255073 97.2782202,29.8493649 C97.7565129,29.5732225 98.3681033,29.7370977 98.6442457,30.2153903 Z M81.1538646,29.9211617 C81.430007,30.3994543 81.2661318,31.0110447 80.7878392,31.2871871 C80.3095466,31.5633295 79.6979562,31.3994543 79.4218138,30.9211617 C79.1456714,30.4428691 79.3095466,29.8312786 79.7878392,29.5551363 C80.2661318,29.2789939 80.8777222,29.4428691 81.1538646,29.9211617 Z M87.850017,29.5192379 C88.1261594,29.9975305 87.9622842,30.6091209 87.4839916,30.8852633 C87.005699,31.1614057 86.3941086,30.9975305 86.1179662,30.5192379 C85.8418238,30.0409453 86.005699,29.4293549 86.4839916,29.1532125 C86.9622842,28.8770701 87.5738746,29.0409453 87.850017,29.5192379 Z M70.359636,29.2250093 C70.6357783,29.7033019 70.4719032,30.3148923 69.9936106,30.5910347 C69.5153179,30.867177 68.9037275,30.7033019 68.6275852,30.2250093 C68.3514428,29.7467166 68.5153179,29.1351262 68.9936106,28.8589838 C69.4719032,28.5828415 70.0834936,28.7467166 70.359636,29.2250093 Z M94.5461694,29.1173141 C94.8223118,29.5956067 94.6584367,30.2071971 94.180144,30.4833395 C93.7018514,30.7594819 93.090261,30.5956067 92.8141186,30.1173141 C92.5379763,29.6390215 92.7018514,29.0274311 93.180144,28.7512887 C93.6584367,28.4751463 94.2700271,28.6390215 94.5461694,29.1173141 Z M77.0557884,28.8230855 C77.3319308,29.3013781 77.1680556,29.9129685 76.689763,30.1891109 C76.2114704,30.4652532 75.59988,30.3013781 75.3237376,29.8230855 C75.0475952,29.3447928 75.2114704,28.7332024 75.689763,28.4570601 C76.1680556,28.1809177 76.779646,28.3447928 77.0557884,28.8230855 Z M83.7519408,28.4211617 C84.0280832,28.8994543 83.864208,29.5110447 83.3859154,29.7871871 C82.9076228,30.0633295 82.2960324,29.8994543 82.01989,29.4211617 C81.7437476,28.9428691 81.9076228,28.3312786 82.3859154,28.0551363 C82.864208,27.7789939 83.4757984,27.9428691 83.7519408,28.4211617 Z M90.4480932,28.0192379 C90.7242356,28.4975305 90.5603605,29.1091209 90.0820678,29.3852633 C89.6037752,29.6614057 88.9921848,29.4975305 88.7160424,29.0192379 C88.4399,28.5409453 88.6037752,27.9293549 89.0820678,27.6532125 C89.5603605,27.3770701 90.1719509,27.5409453 90.4480932,28.0192379 Z M72.9577122,27.7250093 C73.2338545,28.2033019 73.0699794,28.8148923 72.5916868,29.0910347 C72.1133941,29.367177 71.5018037,29.2033019 71.2256614,28.7250093 C70.949519,28.2467166 71.1133941,27.6351262 71.5916868,27.3589838 C72.0699794,27.0828415 72.6815698,27.2467166 72.9577122,27.7250093 Z M97.1442457,27.6173141 C97.420388,28.0956067 97.2565129,28.7071971 96.7782202,28.9833395 C96.2999276,29.2594819 95.6883372,29.0956067 95.4121948,28.6173141 C95.1360525,28.1390215 95.2999276,27.5274311 95.7782202,27.2512887 C96.2565129,26.9751463 96.8681033,27.1390215 97.1442457,27.6173141 Z M79.6538646,27.3230855 C79.930007,27.8013781 79.7661318,28.4129685 79.2878392,28.6891109 C78.8095466,28.9652532 78.1979562,28.8013781 77.9218138,28.3230855 C77.6456714,27.8447928 77.8095466,27.2332024 78.2878392,26.9570601 C78.7661318,26.6809177 79.3777222,26.8447928 79.6538646,27.3230855 Z M86.350017,26.9211617 C86.6261594,27.3994543 86.4622842,28.0110447 85.9839916,28.2871871 C85.505699,28.5633295 84.8941086,28.3994543 84.6179662,27.9211617 C84.3418238,27.4428691 84.505699,26.8312786 84.9839916,26.5551363 C85.4622842,26.2789939 86.0738746,26.4428691 86.350017,26.9211617 Z M93.0461694,26.5192379 C93.3223118,26.9975305 93.1584367,27.6091209 92.680144,27.8852633 C92.2018514,28.1614057 91.590261,27.9975305 91.3141186,27.5192379 C91.0379763,27.0409453 91.2018514,26.4293549 91.680144,26.1532125 C92.1584367,25.8770701 92.7700271,26.0409453 93.0461694,26.5192379 Z M75.5557884,26.2250093 C75.8319308,26.7033019 75.6680556,27.3148923 75.189763,27.5910347 C74.7114704,27.867177 74.09988,27.7033019 73.8237376,27.2250093 C73.5475952,26.7467166 73.7114704,26.1351262 74.189763,25.8589838 C74.6680556,25.5828415 75.279646,25.7467166 75.5557884,26.2250093 Z M82.2519408,25.8230855 C82.5280832,26.3013781 82.364208,26.9129685 81.8859154,27.1891109 C81.4076228,27.4652532 80.7960324,27.3013781 80.51989,26.8230855 C80.2437476,26.3447928 80.4076228,25.7332024 80.8859154,25.4570601 C81.364208,25.1809177 81.9757984,25.3447928 82.2519408,25.8230855 Z M88.9480932,25.4211617 C89.2242356,25.8994543 89.0603605,26.5110447 88.5820678,26.7871871 C88.1037752,27.0633295 87.4921848,26.8994543 87.2160424,26.4211617 C86.9399,25.9428691 87.1037752,25.3312786 87.5820678,25.0551363 C88.0603605,24.7789939 88.6719509,24.9428691 88.9480932,25.4211617 Z M95.6442457,25.0192379 C95.920388,25.4975305 95.7565129,26.1091209 95.2782202,26.3852633 C94.7999276,26.6614057 94.1883372,26.4975305 93.9121948,26.0192379 C93.6360525,25.5409453 93.7999276,24.9293549 94.2782202,24.6532125 C94.7565129,24.3770701 95.3681033,24.5409453 95.6442457,25.0192379 Z M78.1538646,24.7250093 C78.430007,25.2033019 78.2661318,25.8148923 77.7878392,26.0910347 C77.3095466,26.367177 76.6979562,26.2033019 76.4218138,25.7250093 C76.1456714,25.2467166 76.3095466,24.6351262 76.7878392,24.3589838 C77.2661318,24.0828415 77.8777222,24.2467166 78.1538646,24.7250093 Z M84.850017,24.3230855 C85.1261594,24.8013781 84.9622842,25.4129685 84.4839916,25.6891109 C84.005699,25.9652532 83.3941086,25.8013781 83.1179662,25.3230855 C82.8418238,24.8447928 83.005699,24.2332024 83.4839916,23.9570601 C83.9622842,23.6809177 84.5738746,23.8447928 84.850017,24.3230855 Z M91.5461694,23.9211617 C91.8223118,24.3994543 91.6584367,25.0110447 91.180144,25.2871871 C90.7018514,25.5633295 90.090261,25.3994543 89.8141186,24.9211617 C89.5379763,24.4428691 89.7018514,23.8312786 90.180144,23.5551363 C90.6584367,23.2789939 91.2700271,23.4428691 91.5461694,23.9211617 Z M80.7519408,23.2250093 C81.0280832,23.7033019 80.864208,24.3148923 80.3859154,24.5910347 C79.9076228,24.867177 79.2960324,24.7033019 79.01989,24.2250093 C78.7437476,23.7467166 78.9076228,23.1351262 79.3859154,22.8589838 C79.864208,22.5828415 80.4757984,22.7467166 80.7519408,23.2250093 Z M87.4480932,22.8230855 C87.7242356,23.3013781 87.5603605,23.9129685 87.0820678,24.1891109 C86.6037752,24.4652532 85.9921848,24.3013781 85.7160424,23.8230855 C85.4399,23.3447928 85.6037752,22.7332024 86.0820678,22.4570601 C86.5603605,22.1809177 87.1719509,22.3447928 87.4480932,22.8230855 Z M94.1442457,22.4211617 C94.420388,22.8994543 94.2565129,23.5110447 93.7782202,23.7871871 C93.2999276,24.0633295 92.6883372,23.8994543 92.4121948,23.4211617 C92.1360525,22.9428691 92.2999276,22.3312786 92.7782202,22.0551363 C93.2565129,21.7789939 93.8681033,21.9428691 94.1442457,22.4211617 Z M83.350017,21.7250093 C83.6261594,22.2033019 83.4622842,22.8148923 82.9839916,23.0910347 C82.505699,23.367177 81.8941086,23.2033019 81.6179662,22.7250093 C81.3418238,22.2467166 81.505699,21.6351262 81.9839916,21.3589838 C82.4622842,21.0828415 83.0738746,21.2467166 83.350017,21.7250093 Z M90.0461694,21.3230855 C90.3223118,21.8013781 90.1584367,22.4129685 89.680144,22.6891109 C89.2018514,22.9652532 88.590261,22.8013781 88.3141186,22.3230855 C88.0379763,21.8447928 88.2018514,21.2332024 88.680144,20.9570601 C89.1584367,20.6809177 89.7700271,20.8447928 90.0461694,21.3230855 Z M85.9480932,20.2250093 C86.2242356,20.7033019 86.0603605,21.3148923 85.5820678,21.5910347 C85.1037752,21.867177 84.4921848,21.7033019 84.2160424,21.2250093 C83.9399,20.7467166 84.1037752,20.1351262 84.5820678,19.8589838 C85.0603605,19.5828415 85.6719509,19.7467166 85.9480932,20.2250093 Z" id="形状4" fill-opacity="0.04" fill="#FFFFFF"></path>
        </g>
    </g>
</svg>