<?xml version="1.0" encoding="UTF-8"?>
<svg width="132px" height="28px" viewBox="0 0 132 28" version="1.1" xmlns="http://www.w3.org/2000/svg" xmlns:xlink="http://www.w3.org/1999/xlink">
    <title>达普</title>
    <g id="组件" stroke="none" stroke-width="1" fill="none" fill-rule="evenodd">
        <g id="达普">
            <polygon id="Clip-10" points="4.01215684e-05 27.99998 132 27.99998 132 0 4.01215684e-05 0"></polygon>
            <path d="M59.7539144,13.1999906 L59.7539144,8.79999371 L71.589777,8.79999371 C72.8074666,8.79999371 73.7964633,9.78799301 73.7964633,10.9999921 C73.7964633,12.2139913 72.8074666,13.1999906 71.589777,13.1999906 L59.7539144,13.1999906 Z M76.0934231,8.79999371 C75.2789552,7.1419949 73.5677703,5.99999571 71.589777,5.99999571 L56.5441889,5.99999571 L56.5441889,21.9999843 L59.7539144,21.9999843 L59.7539144,15.9999957 L71.589777,15.9999957 C73.5677703,15.9999957 75.2789552,14.8579894 76.0934231,13.1999906 C76.4204139,12.535991 76.6049731,11.7899916 76.6049731,10.9999957 C76.6049731,10.2459018 76.4368106,9.53190228 76.1371259,8.8910438 L76.0934231,8.79999371 Z M44.5077184,19.1999863 L35.6809733,19.1999863 L35.6809733,8.79999371 L44.5077184,8.79999371 C47.3844348,8.79999371 49.7235223,11.131992 49.7235223,13.99999 C49.7235223,16.867988 47.3844348,19.1999863 44.5077184,19.1999863 Z M50.6041907,8.79999371 C49.1337352,7.08599494 46.9491158,5.99999571 44.5077184,5.99999571 L32.4712479,5.99999571 L32.4712479,21.9999843 L44.5077184,21.9999843 C46.9491158,21.9999843 49.1337352,20.9139851 50.6041907,19.1999863 C51.8058317,17.8019873 52.5320321,15.9839886 52.5320321,13.9999957 C52.5320321,12.0159914 51.8058317,10.1979927 50.6041907,8.79999371 Z M104.690051,21.9999843 L107.899776,21.9999843 L107.899776,5.99999571 L104.690051,5.99999571 L104.690051,21.9999843 Z M83.8268554,19.1999863 L83.8268554,15.399989 L95.9636298,15.399989 C97.0148149,15.399989 97.8694043,16.2519884 97.8694043,17.2999876 C97.8694043,18.3479869 97.0148149,19.1999863 95.9636298,19.1999863 L83.8268554,19.1999863 Z M83.8268554,8.79999371 L95.9636298,8.79999371 C97.0148149,8.79999371 97.8694043,9.65199311 97.8694043,10.6999924 C97.8694043,11.7479916 97.0148149,12.599991 95.9636298,12.599991 L83.8268554,12.599991 L83.8268554,8.79999371 Z M99.319799,13.9999957 C99.7190086,13.5979903 100.043993,13.1239906 100.274692,12.599991 C100.535483,12.0179914 100.677914,11.3759919 100.677914,10.6999924 C100.677914,10.0239928 100.535483,9.3819933 100.274692,8.79999371 C99.5444798,7.14999489 97.8894651,5.99999571 95.9636298,5.99999571 L80.6171299,5.99999571 L80.6171299,21.9999843 L95.9636298,21.9999843 C97.8894651,21.9999843 99.5444798,20.8499851 100.274692,19.1999863 C100.535483,18.6179867 100.677914,17.9759872 100.677914,17.2999876 C100.677914,16.6239881 100.535483,15.9819886 100.274692,15.399989 C100.059373,14.9109227 99.7619208,14.4654119 99.3986453,14.0813434 L99.319799,13.9999957 Z M123.948464,19.1999863 L119.936307,19.1999863 C117.060192,19.1999863 114.720503,16.867188 114.720503,13.99999 C114.720503,11.132792 117.060192,8.79999371 119.936307,8.79999371 L123.948464,8.79999371 C126.824578,8.79999371 129.164268,11.132792 129.164268,13.99999 C129.164268,16.867188 126.824578,19.1999863 123.948464,19.1999863 Z M123.948464,5.99999571 L119.936307,5.99999571 C115.548797,5.99999571 111.983927,9.51051539 111.913068,13.8676978 L111.911993,13.9999957 C111.911993,18.4181868 115.504479,21.9999843 119.936307,21.9999843 L123.948464,21.9999843 C128.335775,21.9999843 131.90084,18.4894646 131.971702,14.1322822 L131.972778,13.9999957 C131.972778,9.58179316 128.380092,5.99999571 123.948464,5.99999571 Z" id="英文" fill="#FFFFFF"></path>
            <g id="图标标志" transform="translate(0.000000, 0.000020)" fill="#FFFFFF">
                <path d="M11.7915283,8.63379383 L11.7915283,27.99998 L6.73079431,25.0883821 L0.865622837,21.7165845 C0.3299999,21.4085847 0,20.8391851 0,20.2227856 L0,16.4171883 C0,15.8011887 0.329598684,15.2319891 0.864820406,14.9239893 L6.73079431,11.5469918 L11.7915283,8.63379383 Z" id="Fill-1"></path>
                <path d="M24.4469342,7.78079444 L24.4469342,11.6173917 C24.4469342,12.2331913 24.1173355,12.8025909 23.5823144,13.1105906 L17.7171429,16.4873882 L17.7161399,16.4873882 L12.6564089,19.4005861 L12.6564089,0 L17.7161399,2.91059792 L23.5821138,6.28759551 C24.1173355,6.59559529 24.4469342,7.16479488 24.4469342,7.78079444" id="Fill-3"></path>
            </g>
        </g>
    </g>
</svg>