<?xml version="1.0" encoding="UTF-8"?>
<svg width="32px" height="32px" viewBox="0 0 32 32" version="1.1" xmlns="http://www.w3.org/2000/svg" xmlns:xlink="http://www.w3.org/1999/xlink">
    <title>切片</title>
    <g id="鸿运-汽车行驶记录仪流量监控管理平台" stroke="none" stroke-width="1" fill="none" fill-rule="evenodd">
        <g id="1.1-SIM卡管理" transform="translate(-16.000000, -12.000000)">
            <g id="产品品牌标识/工具条/产品图标/管理平台" transform="translate(16.000072, 12.000947)">
                <rect id="矩形" x="0" y="0" width="32.0001435" height="32.0025262"></rect>
                <rect id="矩形" x="4.00001794" y="4.00031577" width="24.0001077" height="24.0018946"></rect>
                <g id="品牌标志" transform="translate(4.000018, 8.000632)">
                    <rect id="矩形" x="0" y="0" width="24.0001077" height="17.001342"></rect>
                    <g id="编组" transform="translate(0.104875, 0.126754)" fill="#FFFFFF">
                        <path d="M23.3653724,3.79239968 C23.4998491,3.92933806 23.6141956,4.0821083 23.7089653,4.24876817 L23.7174602,4.26418815 C22.8635136,3.83861351 21.5498351,4.1999344 20.511675,5.19840903 L20.46,5.24886303 L20.4139569,5.2951202 L12.789467,13.0591763 C9.77053759,16.1333671 5.59361281,17.3096763 1.68849211,16.5881038 C4.17367986,16.37251 6.60113937,15.3097132 8.51878076,13.3997784 L8.60829508,13.3096297 L15.7408824,6.04648047 C18.4575853,3.28004836 21.8711858,2.27086202 23.3653724,3.79239968 Z" id="路径"></path>
                        <path d="M8.1163925,12.8087228 C6.17929491,14.781279 3.67007991,15.8161706 1.13266527,15.9133978 L8.36234379,8.55101468 L0.983805152,1.03741204 L0.958652249,1.01302476 C0.694403335,0.769151956 0.290518654,0.768898187 0.0259791354,1.01226345 L0,1.03741204 L0.0427213054,0.994636803 C1.38965841,-0.331395513 3.52873066,-0.331545584 4.87584706,0.994186589 L4.91902576,1.03741204 C6.27737721,-0.345804013 8.47970006,-0.345804013 9.83805152,1.03741204 L12.789467,4.0428531 L13.2813695,3.54194625 C15.9980725,0.77551415 19.4116729,-0.233672197 20.9058595,1.28786546 C21.2016539,1.58907442 21.4000532,1.96688128 21.5069503,2.40061687 C19.6740796,2.3915319 17.3779348,3.45253531 15.4213558,5.37322536 L15.3388878,5.45489231 L15.2489799,5.54557363 L8.1163925,12.8087228 Z M10.3299541,6.54738731 L10.8218567,6.04648047 L6.1487822,1.28786546 L6.1236293,1.26347818 C5.85938038,1.01960538 5.4554957,1.01935161 5.19095618,1.26271687 L5.16497705,1.28786546 L10.3299541,6.54738731 Z" id="形状"></path>
                    </g>
                </g>
            </g>
        </g>
    </g>
</svg>