<?xml version="1.0" encoding="UTF-8"?>
<svg width="20px" height="20px" viewBox="0 0 20 20" version="1.1" xmlns="http://www.w3.org/2000/svg" xmlns:xlink="http://www.w3.org/1999/xlink">
    <title>透明层</title>
    <g id="组件" stroke="none" stroke-width="1" fill="none" fill-rule="evenodd">
        <g id="Icon/面型/20×20/达普">
            <rect id="透明层" x="0" y="0" width="20" height="20"></rect>
            <g id="图标标志" transform="translate(3.000000, 2.000000)">
                <path d="M6.75264208,4.9336 L6.75264208,16 L3.85451687,14.3362286 L0.495715316,12.4094857 C0.188980694,12.2334857 0,11.9081143 0,11.5558857 L0,9.38125714 C0,9.02925714 0.18875093,8.704 0.495255789,8.528 L3.85451687,6.59828571 L6.75264208,4.9336 Z" id="Fill-1" fill="#0215C1"></path>
                <path d="M14,4.44617143 L14,6.63851429 C14,6.9904 13.8112491,7.31577143 13.5048591,7.49177143 L10.1460575,9.42137143 L10.1454831,9.42137143 L7.24793233,11.0860571 L7.24793233,0 L10.1454831,1.6632 L13.5047442,3.59291429 C13.8112491,3.76891429 14,4.09417143 14,4.44617143" id="Fill-3" fill="#0395FF"></path>
            </g>
        </g>
    </g>
</svg>