<?xml version="1.0" encoding="UTF-8"?>
<svg width="112px" height="112px" viewBox="0 0 112 112" version="1.1" xmlns="http://www.w3.org/2000/svg" xmlns:xlink="http://www.w3.org/1999/xlink">
    <title>透明层</title>
    <g id="组件" stroke="none" stroke-width="1" fill="none" fill-rule="evenodd">
        <g id="插图/112×112/数据空状态">
            <rect id="透明层" x="0" y="0" width="112" height="112"></rect>
            <g id="插图图案" transform="translate(6.989372, 7.937488)">
                <circle id="插图背景" fill="#F5F5F5" cx="49.0106279" cy="52.0625118" r="40"></circle>
                <path d="M79.0106279,51.0625118 C80.1151974,51.0625118 81.0106279,51.9579423 81.0106279,53.0625118 L81.0115577,76.0651737 C73.7137844,85.7792333 62.0959753,92.0625118 49.0106279,92.0625118 C35.9257277,92.0625118 24.3082655,85.7796627 17.0104463,76.0661697 L17.0104463,53.0625118 C17.0104463,51.9579423 17.9060584,51.0625118 19.0106279,51.0625118 L79.0106279,51.0625118 Z" id="笔记本" fill="#FFFFFF"></path>
                <path d="M49.0106279,44.0625118 C51.1528233,44.0625118 52.9017068,45.7464802 53.0057326,47.8628714 L53.0106279,48.0625118 L60.0106279,48.0625118 C61.1151974,48.0625118 62.0106279,48.9579423 62.0106279,50.0625118 L62.0106279,54.0625118 C62.0106279,55.1670813 61.1151974,56.0625118 60.0106279,56.0625118 L38.0106279,56.0625118 C36.9060584,56.0625118 36.0106279,55.1670813 36.0106279,54.0625118 L36.0106279,50.0625118 C36.0106279,48.9579423 36.9060584,48.0625118 38.0106279,48.0625118 L45.0106279,48.0625118 L45.0106279,48.0625118 C45.0106279,45.8533728 46.8014889,44.0625118 49.0106279,44.0625118 Z" id="架子" fill="#FFFFFF"></path>
                <rect id="文本2" fill="#FFFFFF" transform="translate(24.010628, 52.062512) rotate(-15.000000) translate(-24.010628, -52.062512) " x="4.01062789" y="36.0625118" width="40" height="32" rx="2"></rect>
                <rect id="文本3" fill="#FFFFFF" transform="translate(39.010628, 14.062512) rotate(-330.000000) translate(-39.010628, -14.062512) " x="27.0106279" y="5.06251178" width="24" height="18" rx="2"></rect>
                <rect id="文本1" fill="#FFFFFF" transform="translate(74.010628, 40.062512) rotate(-350.000000) translate(-74.010628, -40.062512) " x="54.0106279" y="24.0625118" width="40" height="32" rx="2"></rect>
                <path d="M34.8503739,1.26828314 L52.1708819,11.2682831 C52.5352954,11.4786773 52.8084493,11.7864351 52.976456,12.1397267 L53.0297105,12.2620396 C62.8344557,13.2400989 71.596608,17.7589153 78.0190173,24.5212691 L78.014,24.5215118 L94.5155383,27.4312549 C95.6033269,27.6230614 96.3296639,28.6603782 96.1378574,29.7481668 L91.2757085,57.3227839 C91.083902,58.4105725 90.0465852,59.1369095 88.9587966,58.945103 L88.4365863,58.8530673 C87.3819364,65.0202485 84.9154322,70.705599 81.381555,75.5646372 L81.0115577,76.0651737 L80.4558337,76.7876771 C73.1316297,86.0896526 61.7686468,92.0625118 49.0106279,92.0625118 C36.6153052,92.0625118 25.5368273,86.4244287 18.1998105,77.5728788 L18.0102954,77.3425091 C17.8036473,77.0894049 17.6000373,76.8337228 17.3995211,76.5755184 C16.1166883,74.9236411 14.9603371,73.168268 13.945221,71.324204 L10.7650677,72.1760678 C9.69813553,72.4619514 8.60146162,71.8287865 8.315578,70.7618542 L1.06864473,43.7159311 C0.782761112,42.6489989 1.41592609,41.552325 2.4828583,41.2664414 L11.2176723,38.9261334 C14.1873122,30.3815231 19.9729218,23.1545411 27.4635462,18.3561424 L27.934,18.059 L25.8503739,16.8567404 C24.8937886,16.3044557 24.5660383,15.0812749 25.118323,14.1246896 L32.118323,2.00033395 C32.6706078,1.0437487 33.8937886,0.715998393 34.8503739,1.26828314 Z M36.0106279,52.0625118 L19.0106279,52.0625118 C18.4977921,52.0625118 18.0751207,52.448552 18.0173556,52.9458907 L18.0106279,53.0625118 L18.0099031,74.0440234 C19.4830028,76.1177932 21.158969,78.0373759 23.0088655,79.7738352 L23.0106279,79.0625118 C23.0106279,77.9579423 23.9060584,77.0625118 25.0106279,77.0625118 L29.0106279,77.0625118 C30.1151974,77.0625118 31.0106279,77.9579423 31.0106279,79.0625118 L31.0106279,83.0625118 C31.0106279,83.869311 30.5329043,84.5645318 29.8448968,84.8807347 C35.464484,88.1731834 42.0169178,90.0625118 49.0106279,90.0625118 C55.8700787,90.0625118 62.305033,88.2450266 67.8601987,85.0653486 L37.0106279,85.0625118 C35.9060584,85.0625118 35.0106279,84.1670813 35.0106279,83.0625118 L35.0106279,79.0625118 C35.0106279,77.9579423 35.9060584,77.0625118 37.0106279,77.0625118 L73.0106279,77.0625118 C74.1151974,77.0625118 75.0106279,77.9579423 75.0106279,79.0625118 L75.0112047,79.7749481 L75.1580177,79.6364187 C76.9506846,77.9359326 78.5776629,76.0624824 80.0122241,74.0427966 L80.0106279,53.0625118 C80.0106279,52.5496759 79.6245877,52.1270046 79.127249,52.0692395 L79.0106279,52.0625118 L62.0106279,52.0625118 L62.0106279,54.0625118 C62.0106279,55.1670813 61.1151974,56.0625118 60.0106279,56.0625118 L38.0106279,56.0625118 C36.9060584,56.0625118 36.0106279,55.1670813 36.0106279,54.0625118 L36.0106279,52.0625118 Z M29.0106279,78.0625118 L25.0106279,78.0625118 C24.4977921,78.0625118 24.0751207,78.448552 24.0173556,78.9458907 L24.0106279,79.0625118 L24.0090666,80.6800268 C25.4213931,81.9149139 26.92595,83.0469411 28.5110505,84.0644216 L29.0106279,84.0625118 C29.5234637,84.0625118 29.9461351,83.6764716 30.0039002,83.1791329 L30.0106279,83.0625118 L30.0106279,79.0625118 C30.0106279,78.5496759 29.6245877,78.1270046 29.127249,78.0692395 L29.0106279,78.0625118 Z M73.0106279,78.0625118 L37.0106279,78.0625118 C36.4977921,78.0625118 36.0751207,78.448552 36.0173556,78.9458907 L36.0106279,79.0625118 L36.0106279,83.0625118 C36.0106279,83.5753476 36.3966681,83.9980189 36.8940068,84.055784 L37.0106279,84.0625118 L69.5109537,84.0639412 C71.0956726,83.0466533 72.5998822,81.9148721 74.0119037,80.6802765 L74.0106279,79.0625118 C74.0106279,78.5496759 73.6245877,78.1270046 73.127249,78.0692395 L73.0106279,78.0625118 Z M29.0106279,65.0625118 C30.1151974,65.0625118 31.0106279,65.9579423 31.0106279,67.0625118 L31.0106279,71.0625118 C31.0106279,72.1670813 30.1151974,73.0625118 29.0106279,73.0625118 L25.0106279,73.0625118 C23.9060584,73.0625118 23.0106279,72.1670813 23.0106279,71.0625118 L23.0106279,67.0625118 C23.0106279,65.9579423 23.9060584,65.0625118 25.0106279,65.0625118 L29.0106279,65.0625118 Z M73.0106279,65.0625118 C74.1151974,65.0625118 75.0106279,65.9579423 75.0106279,67.0625118 L75.0106279,71.0625118 C75.0106279,72.1670813 74.1151974,73.0625118 73.0106279,73.0625118 L37.0106279,73.0625118 C35.9060584,73.0625118 35.0106279,72.1670813 35.0106279,71.0625118 L35.0106279,67.0625118 C35.0106279,65.9579423 35.9060584,65.0625118 37.0106279,65.0625118 L73.0106279,65.0625118 Z M81.0088524,57.5433134 L81.0116093,72.5635355 C83.7039994,68.3695635 85.5944654,63.6116752 86.4665149,58.5063627 L81.0088524,57.5433134 Z M17.0097782,70.5028027 L15.9384371,70.790395 C16.2795764,71.3915295 16.6366322,71.9824479 17.0090313,72.5625773 L17.0097782,70.5028027 Z M29.0106279,66.0625118 L25.0106279,66.0625118 C24.4977921,66.0625118 24.0751207,66.448552 24.0173556,66.9458907 L24.0106279,67.0625118 L24.0106279,71.0625118 C24.0106279,71.5753476 24.3966681,71.9980189 24.8940068,72.055784 L25.0106279,72.0625118 L29.0106279,72.0625118 C29.5234637,72.0625118 29.9461351,71.6764716 30.0039002,71.1791329 L30.0106279,71.0625118 L30.0106279,67.0625118 C30.0106279,66.5496759 29.6245877,66.1270046 29.127249,66.0692395 L29.0106279,66.0625118 Z M73.0106279,66.0625118 L37.0106279,66.0625118 C36.4977921,66.0625118 36.0751207,66.448552 36.0173556,66.9458907 L36.0106279,67.0625118 L36.0106279,71.0625118 C36.0106279,71.5753476 36.3966681,71.9980189 36.8940068,72.055784 L37.0106279,72.0625118 L73.0106279,72.0625118 C73.5234637,72.0625118 73.9461351,71.6764716 74.0039002,71.1791329 L74.0106279,71.0625118 L74.0106279,67.0625118 C74.0106279,66.5496759 73.6245877,66.1270046 73.127249,66.0692395 L73.0106279,66.0625118 Z M37.6293957,32.8911963 L37.5150071,32.9148816 L2.74167734,42.2323672 C2.24631596,42.3650989 1.93796137,42.8473805 2.01088528,43.3427234 L2.03457056,43.4571121 L9.28150382,70.5030352 C9.41423551,70.9983966 9.89651708,71.3067512 10.3918601,71.2338273 L10.5062487,71.210142 L17.0098273,69.4675134 L17.0106279,53.0625118 C17.0106279,51.9579423 17.9060584,51.0625118 19.0106279,51.0625118 L36.0106279,51.0625118 L36.0106279,50.0625118 C36.0106279,48.9579423 36.9060584,48.0625118 38.0106279,48.0625118 L42.6088379,48.0616135 L38.739752,33.6219884 C38.6070203,33.126627 38.1247387,32.8182724 37.6293957,32.8911963 Z M57.7572316,22.8622067 L57.7303551,22.9758879 L53.3066298,48.0640808 L60.0106279,48.0625118 C61.1151974,48.0625118 62.0106279,48.9579423 62.0106279,50.0625118 L62.0106279,51.0625118 L79.0106279,51.0625118 C80.1151974,51.0625118 81.0106279,51.9579423 81.0106279,53.0625118 L81.0088115,56.5278795 L89.1324448,57.9602953 C89.6374895,58.0493483 90.1207747,57.742569 90.2640241,57.2628168 L90.2909007,57.1491357 L95.1530497,29.5745186 C95.2421027,29.0694739 94.9353234,28.5861887 94.4555712,28.4429392 L94.3418901,28.4160627 L58.888811,22.1647283 C58.3837663,22.0756753 57.9004811,22.3824545 57.7572316,22.8622067 Z M49.0106279,45.0625118 C47.412947,45.0625118 46.106967,46.3114317 46.0157206,47.886239 L46.0106279,48.0625118 C46.0106279,48.5753476 45.6245877,48.9980189 45.127249,49.055784 L45.0106279,49.0625118 L38.0106279,49.0625118 C37.4977921,49.0625118 37.0751207,49.448552 37.0173556,49.9458907 L37.0106279,50.0625118 L37.0106279,54.0625118 C37.0106279,54.5753476 37.3966681,54.9980189 37.8940068,55.055784 L38.0106279,55.0625118 L60.0106279,55.0625118 C60.5234637,55.0625118 60.9461351,54.6764716 61.0039002,54.1791329 L61.0106279,54.0625118 L61.0106279,50.0625118 C61.0106279,49.5496759 60.6245877,49.1270046 60.127249,49.0692395 L60.0106279,49.0625118 L53.0106279,49.0625118 C52.5066598,49.0625118 52.0881181,48.6892331 52.0202456,48.2014942 L52.0109284,48.087025 L52.0069384,47.9119646 C51.9286934,46.3200816 50.6115829,45.0625118 49.0106279,45.0625118 Z M52.7613892,14.2452812 L45.9029327,26.1246896 C45.350648,27.0812749 44.1274672,27.4090252 43.1708819,26.8567404 L29.913,19.202 L29.4349179,19.4860644 C22.273115,23.7989616 16.6497363,30.406784 13.5826929,38.2916205 L37.256188,31.9489557 C38.3231203,31.6630721 39.4197942,32.2962371 39.7056778,33.3631693 L43.6441272,48.0616626 L45.0106279,48.0625118 C45.0106279,45.8533728 46.8014889,44.0625118 49.0106279,44.0625118 C50.5876329,44.0625118 51.951488,44.9751148 52.602885,46.3010127 L56.7455473,22.8022397 C56.9373538,21.7144511 57.9746706,20.9881141 59.0624592,21.1799205 L74.53135,23.9073303 C68.6554791,18.5780369 61.1041488,15.0626772 52.7613892,14.2452812 Z M33.0484854,2.40270096 L32.9843485,2.50033395 L25.9843485,14.6246896 C25.7279305,15.0688185 25.8509155,15.6278827 26.2527409,15.9265781 L26.3503739,15.990715 L43.6708819,25.990715 C44.1150108,26.2471329 44.674075,26.124148 44.9727704,25.7223226 L45.0369073,25.6246896 L52.0369073,13.500334 C52.2933253,13.0562051 52.1703403,12.4971409 51.7685149,12.1984455 L51.6708819,12.1343085 L34.3503739,2.13430855 C33.906245,1.87789063 33.3471808,2.00087558 33.0484854,2.40270096 Z" id="线框" fill="#D9D9D9"></path>
            </g>
        </g>
    </g>
</svg>