<?xml version="1.0" encoding="UTF-8"?>
<svg width="112px" height="112px" viewBox="0 0 112 112" version="1.1" xmlns="http://www.w3.org/2000/svg" xmlns:xlink="http://www.w3.org/1999/xlink">
    <title>透明层</title>
    <g id="组件" stroke="none" stroke-width="1" fill="none" fill-rule="evenodd">
        <g id="插图/112×112/搜索空状态">
            <rect id="透明层" x="0" y="0" width="112" height="112"></rect>
            <g id="插画图案" transform="translate(2.411209, 6.000000)">
                <circle id="插图背景" fill="#F5F5F5" cx="53.5887912" cy="54" r="40"></circle>
                <path d="M57.7298959,45.4548132 C59.8720913,45.4548132 61.6209748,47.1387817 61.7250006,49.2551729 L61.7298959,49.4548132 L68.7298959,49.4548132 C69.8344654,49.4548132 70.7298959,50.3502437 70.7298959,51.4548132 L70.7297143,52.4548132 L87.7298959,52.4548132 C88.8344654,52.4548132 89.7298959,53.3502437 89.7298959,54.4548132 L89.7308258,77.4574752 C82.4330525,87.1715347 70.8152434,93.4548132 57.7298959,93.4548132 C44.6449957,93.4548132 33.0275335,87.1719642 25.7297143,77.4584711 L25.7297143,54.4548132 C25.7297143,53.3502437 26.6253264,52.4548132 27.7298959,52.4548132 L44.7297143,52.4548132 L44.7298959,51.4548132 C44.7298959,50.3502437 45.6253264,49.4548132 46.7298959,49.4548132 L53.7298959,49.4548132 C53.7298959,47.2456742 55.5207569,45.4548132 57.7298959,45.4548132 Z" id="路径" fill="#FFFFFF" transform="translate(57.730270, 69.454813) rotate(-15.000000) translate(-57.730270, -69.454813) "></path>
                <path d="M61.8537023,3.20666295 L69.8537023,5.89146726 C71.4870708,6.43962662 72.5887912,7.97857864 72.5887912,9.71201076 L72.5887912,24.9317936 C72.5887912,28.9530847 68.6655892,35 60.5887912,35 C52.5119932,35 48.5887912,28.9590001 48.5887912,24.9317936 L48.5887912,9.71201076 C48.5887912,7.97857864 49.6905116,6.43962662 51.3238802,5.89146726 L59.3238802,3.20666295 C60.1449474,2.93111235 61.0326351,2.93111235 61.8537023,3.20666295 Z" id="路径" fill="#FFFFFF" transform="translate(60.588791, 19.000000) rotate(-345.000000) translate(-60.588791, -19.000000) "></path>
                <path d="M91.0004102,30.1074106 C100.6028,32.6803633 106.301285,42.5504285 103.728332,52.1528183 C101.207343,61.5612795 91.6810074,67.2219289 82.2649759,65.0265444 L81.7406427,68.2358379 C82.271881,68.7236844 82.5202797,69.4830949 82.320681,70.2280076 L78.224431,85.5154913 C77.7995302,85.8481049 77.3677324,86.1723123 76.9292878,86.4878633 L74.4097695,88.1606194 C74.0052428,88.4077071 73.595985,88.6478112 73.1821639,88.8807642 L78.4569777,69.1927314 C78.6566804,68.4474308 79.252021,67.9137937 79.9564905,67.7572362 L81.106908,64.7162749 C71.8541102,61.909894 66.433926,52.2441182 68.9550025,42.8353327 C71.5279551,33.2329428 81.3980203,27.534458 91.0004102,30.1074106 Z" id="放大镜" fill="#FFFFFF"></path>
                <rect id="本子" fill="#FFFFFF" transform="translate(25.588791, 52.000000) rotate(-30.000000) translate(-25.588791, -52.000000) " x="5.58879122" y="36" width="40" height="32" rx="2"></rect>
                <path d="M65.8982179,4.07219094 L72.930746,8.73606511 C74.3665848,9.68829329 75.0324549,11.459953 74.5838096,13.1343199 L73.0066773,19.0210299 C77.759667,21.6652061 81.9174822,25.2500284 85.2285203,29.5238946 L85.5213382,29.5079417 C87.3223153,29.4262707 89.1662458,29.6159478 91.0004102,30.1074106 C100.6028,32.6803633 106.301285,42.5504285 103.728332,52.1528183 C102.153227,58.0311927 97.8434387,62.4465309 92.5344921,64.396828 L92.1908624,64.5191368 C91.8505193,65.7712953 91.4508664,66.9990333 90.9951078,68.1991478 L90.7144852,68.9175211 L90.5007827,69.4377509 L90.257,70.0007771 L90.2600214,70.0009619 L90.055427,70.4612296 L90.055427,70.4612296 L89.8101685,70.9929378 L89.8101685,70.9929378 L89.4527951,71.7334627 L89.4527951,71.7334627 L89.2900885,72.0583672 L89.2900885,72.0583672 L89.0797193,72.4674047 L89.0797193,72.4674047 C88.5981918,73.3910898 88.0815464,74.2936996 87.5316297,75.1734084 L86.9942397,76.0097879 L86.7997984,76.3015231 L86.7997984,76.3015231 L86.4118912,76.8675289 L86.4118912,76.8675289 L86.0340499,77.3995807 L85.7941752,77.7280834 L85.2241776,78.4817099 L85.2241776,78.4817099 L85.0221254,78.7402353 L84.5721755,79.3007415 L84.1337073,79.8278154 L84.1337073,79.8278154 L83.5814947,80.4665011 L83.5814947,80.4665011 C83.1249036,80.9835364 82.6551364,81.4886861 82.1727279,81.9814169 L81.5858349,82.5686279 L81.5858349,82.5686279 L81.0284083,83.1045702 L81.0284083,83.1045702 L80.4080258,83.6774988 L80.4080258,83.6774988 L79.8469548,84.1754207 L79.8469548,84.1754207 L79.3419809,84.6079253 L79.3419809,84.6079253 L78.8162156,85.0431822 L78.8162156,85.0431822 L78.2159737,85.5221099 C78.0134039,85.6805948 77.8092675,85.8371696 77.6035917,85.9918071 L78.2246574,85.5153142 C77.9938368,85.6960011 77.7610498,85.8741579 77.5263002,86.0497726 L76.9292878,86.4878633 L76.9292878,86.4878633 C75.9663456,87.1809026 74.9712359,87.8322497 73.9467102,88.4391811 L73.7199853,88.5724877 L73.1824089,88.8806262 L72.5990463,89.2026442 L72.5990463,89.2026442 L71.8611551,89.5920436 L71.8611551,89.5920436 L71.246971,89.9013201 L71.246971,89.9013201 L70.9230383,90.0591339 L70.9230383,90.0591339 L70.3007809,90.3522157 L70.3007809,90.3522157 L69.8360339,90.5626247 L69.8360339,90.5626247 L69.2056043,90.8366834 L68.6727238,91.0583283 L68.6727238,91.0583283 L68.0368754,91.3110398 L68.0368754,91.3110398 L67.4779269,91.5228089 L67.4779269,91.5228089 L66.9297527,91.7212268 L66.9297527,91.7212268 L66.2880266,91.9420373 L66.2880266,91.9420373 L65.6764658,92.1411422 L65.6764658,92.1411422 C65.3120968,92.2565164 64.945047,92.3669343 64.5758175,92.4721803 L63.8616337,92.6685663 L63.8616337,92.6685663 L63.1928636,92.8395624 L63.1928636,92.8395624 L62.622201,92.9757388 L62.622201,92.9757388 L61.9509429,93.1245874 L61.9509429,93.1245874 L61.4150289,93.2347239 L61.4150289,93.2347239 L60.6534749,93.3780942 L60.6534749,93.3780942 L60.0866126,93.4748983 L60.0866126,93.4748983 L59.589385,93.552909 C57.6324333,93.8473395 55.6284401,94 53.5887912,94 C49.1674884,94 44.9137259,93.2826744 40.9375361,91.9580555 L40.2765076,91.7313572 C40.0834233,91.6632339 39.8910186,91.5936704 39.6993065,91.5226796 L39.2260247,91.3439877 L38.6702729,91.1252929 L38.1171199,90.8979565 L37.5685356,90.6637398 L37.1960195,90.4978339 L36.6128256,90.2294944 L36.344989,90.1025514 C34.4351668,89.1886617 32.6095918,88.1280142 30.882532,86.9350776 L30.1883109,86.4446087 C29.9363502,86.2625653 29.6865943,86.077659 29.4390911,85.8899376 L28.8914881,85.4671241 C24.9601572,82.3771848 21.6225103,78.5669437 19.0771524,74.2351084 L18.000334,74.8564065 C17.0437487,75.4086912 15.8205679,75.0809409 15.2682831,74.1243557 L1.26828314,49.8756443 C0.715998393,48.9190591 1.0437487,47.6958783 2.00033395,47.1435935 L16.6181448,38.7026436 C22.0602121,25.5649042 34.3011534,15.956652 48.9531248,14.265731 L49.448,14.2117771 L51.4015898,6.92266278 C51.8502351,5.24829593 53.3127253,4.04692864 55.0323123,3.94019424 L63.4545974,3.41742479 C64.3190052,3.36377118 65.1764456,3.59352166 65.8982179,4.07219094 Z M41.1139585,84.2667671 L40.9995699,84.2904524 L37.1358666,85.3257286 C36.6405052,85.4584602 36.3321506,85.9407418 36.4050745,86.4360848 L36.4287598,86.5504734 L36.8501047,88.1242583 C38.5205163,88.945182 40.2599978,89.6470665 42.057484,90.2188465 L42.5524841,90.0860073 C43.0478455,89.9532757 43.3562001,89.4709941 43.2832762,88.9756511 L43.2595909,88.8612625 L42.2243147,84.9975592 C42.0915831,84.5021978 41.6093015,84.1938432 41.1139585,84.2667671 Z M78.9052654,71.3834021 L75.1839906,85.2715585 C76.0789191,84.6523761 76.9459777,83.9957673 77.7829034,83.3039953 L80.8371171,71.9010402 L78.9052654,71.3834021 Z M79.129858,82.1367159 L79.3143357,81.9680527 L79.3143357,81.9680527 L79.8306635,81.4839762 L80.3290179,80.9992683 L80.3290179,80.9992683 L79.3653391,81.2563039 L79.129858,82.1367159 Z M24.97,70.8323104 L20.8094068,73.234704 C22.7492667,76.5334489 25.1728594,79.5135484 27.9827061,82.0775238 L24.97,70.8323104 Z M40.084412,73.1476302 L41.1196882,77.0113335 C41.4055718,78.0782657 40.7724068,79.1749396 39.7054746,79.4608233 L35.8417713,80.4960994 C34.7748391,80.7819831 33.6781652,80.1488181 33.3922816,79.0818859 L32.3570054,75.2181826 C32.0711218,74.1512504 32.7042868,73.0545764 33.771219,72.7686928 L37.6349223,71.7334166 C38.7018545,71.447533 39.7985284,72.080698 40.084412,73.1476302 Z M83.6146948,72.8787291 L83.5003062,72.9024144 L81.4573391,73.4493039 L79.6643391,80.1413039 L81.66691,79.605433 L82.1752664,79.0370171 L82.1752664,79.0370171 L82.6723004,78.4584284 C82.8528458,78.2439643 83.0310624,78.0274751 83.2069113,77.8089996 L82.7619167,78.3515808 L83.0247998,78.0335106 L83.0247998,78.0335106 L83.2842833,77.712553 C83.4799444,77.4678446 83.6726437,77.2206647 83.8623268,76.9710676 L84.145376,76.5937949 L84.39913,76.2471103 L84.39913,76.2471103 L84.6490461,75.8974673 C84.817095,75.6595355 84.982479,75.4195872 85.1451545,75.1776659 L84.7250511,73.6095212 C84.5923194,73.1141598 84.1100378,72.8058052 83.6146948,72.8787291 Z M38.0081299,72.6756572 L37.8937413,72.6993425 L34.030038,73.7346187 C33.5346766,73.8673503 33.226322,74.3496319 33.299246,74.8449749 L33.3229312,74.9593635 L34.3582074,78.8230668 C34.4909391,79.3184282 34.9732207,79.6267828 35.4685637,79.5538589 L35.5829523,79.5301736 L39.4466556,78.4948974 C39.942017,78.3621657 40.2503716,77.8798842 40.1774477,77.3845412 L40.1537624,77.2701526 L39.1184862,73.4064493 C38.9857545,72.9110879 38.5034729,72.6027333 38.0081299,72.6756572 Z M76.2689952,62.4178069 L45.6211479,70.6287901 C45.1257866,70.7615218 44.817432,71.2438034 44.8903559,71.7391464 L44.9140412,71.853535 L45.9493173,75.7172383 C46.082049,76.2125997 46.5643306,76.5209543 47.0596736,76.4480303 L47.1740622,76.4243451 L80.0053391,67.6263039 L81.106908,64.7162749 C79.4720449,64.2204196 77.9568315,63.510422 76.5839312,62.6255362 L76.2689952,62.4178069 Z M33.7816092,29.9571348 L33.6772485,30.0096189 L2.50033395,48.0096189 C2.05620509,48.2660369 1.88318108,48.8116931 2.08182437,49.2712836 L2.13430855,49.3756443 L16.1343085,73.6243557 C16.3907265,74.0684845 16.9363827,74.2415085 17.3959732,74.0428652 L17.500334,73.9903811 L24.701,69.8323104 L22.9379838,63.2481353 C22.6521002,62.1812031 23.2852652,61.0845291 24.3521974,60.7986455 L40.7726776,56.3977558 L40.5141174,55.4327959 C40.2282338,54.3658637 40.8613987,53.2691898 41.9283309,52.9833062 L47.269,51.5513104 L35.0432739,30.3756443 C34.786856,29.9315155 34.2411997,29.7584915 33.7816092,29.9571348 Z M83.5268002,65.274079 L83.6204246,65.6232955 C83.9063082,66.6902277 83.2731432,67.7869016 82.206211,68.0727853 L81.7473391,68.1953039 L81.7406427,68.2358379 C82.271881,68.7236844 82.5202797,69.4830949 82.320681,70.2280076 L81.756,72.3337771 L83.2414872,71.9364886 C84.3084194,71.650605 85.4050933,72.2837699 85.6909769,73.3507021 L85.877615,74.0455834 C86.3898058,73.2223544 86.8718348,72.37725 87.3216008,71.5126781 L87.5555909,71.055337 L87.5555909,71.055337 L87.700196,70.7648155 C88.2664078,69.6149262 88.7761884,68.4322508 89.2259235,67.2204033 L88.7208729,65.3408824 L88.765911,65.3348013 C87.2175201,65.5458692 85.6242123,65.5563773 84.0212486,65.3459676 L83.5268002,65.274079 Z M79.4595858,69.3406444 L79.4229035,69.4515505 L79.1640845,70.4174763 L81.0959361,70.9351144 L81.3547552,69.9691886 C81.497697,69.4357225 81.1811145,68.8873855 80.6476484,68.7444437 C80.152287,68.611712 79.6441033,68.8752028 79.4595858,69.3406444 Z M82.2649759,65.0265444 L81.9233391,67.1123039 L81.947392,67.1068594 C82.4427533,66.9741278 82.7511079,66.4918462 82.678184,65.9965032 L82.6544987,65.8821146 L82.4358237,65.0655147 L82.2649759,65.0265444 Z M69.9209283,43.0941518 C67.4909175,52.1630755 72.8728198,61.4848038 81.9417436,63.9148146 C91.0106674,66.3448254 100.332396,60.962923 102.762406,51.8939993 C105.192417,42.8250755 99.8105149,33.5033473 90.7415911,31.0733365 C81.6726674,28.6433257 72.3509391,34.025228 69.9209283,43.0941518 Z M90.223953,33.0051881 C98.2259446,35.1493153 102.974682,43.3743696 100.830555,51.3763612 C98.6864276,59.3783527 90.4613732,64.1270901 82.4593817,61.9829629 C74.4573901,59.8388357 69.7086528,51.6137814 71.85278,43.6117898 C73.9969072,35.6097983 82.2219615,30.861061 90.223953,33.0051881 Z M72.7583354,43.8544327 C70.7482162,51.3562998 75.2001575,59.0672882 82.7020246,61.0774075 C90.2038916,63.0875267 97.9148801,58.6355854 99.9249993,51.1337183 C101.935119,43.6318513 97.4831773,35.9208628 89.9813102,33.9107436 C82.4794431,31.9006244 74.7684547,36.3525656 72.7583354,43.8544327 Z M51.7770579,47.2385192 C50.1766596,47.6673447 49.2269121,49.3123555 49.6557376,50.9127538 C49.7884692,51.4081152 49.5249784,51.9162989 49.0595369,52.1008164 L48.9486308,52.1374987 L42.18715,53.949232 C41.6917886,54.0819637 41.383434,54.5642453 41.4563579,55.0595883 L41.4800432,55.1739769 L42.5153194,59.0376802 C42.6480511,59.5330416 43.1303327,59.8413962 43.6256756,59.7684723 L43.7400643,59.744787 L64.9904324,54.050768 C65.4857938,53.9180363 65.7941484,53.4357547 65.7212245,52.9404117 L65.6975392,52.8260231 L65.1796423,50.8932055 L65.1691435,50.8965241 L64.9103244,49.9305983 L64.9208233,49.9272797 L64.662263,48.9623198 C64.5295314,48.4669584 64.0472498,48.1586038 63.5519068,48.2315277 L63.4375182,48.255213 L56.6760374,50.0669463 C56.1892416,50.1973829 55.6883498,49.9451499 55.4965538,49.491597 L55.4579273,49.3834398 L55.4087643,49.2153771 C54.9211758,47.6979875 53.3234617,46.8241616 51.7770579,47.2385192 Z M48.8917811,16.2874254 C36.0429594,17.8713372 25.1800362,25.8691024 19.6047442,36.9789882 L33.1772485,29.1435935 C34.1338337,28.5913088 35.3570145,28.9190591 35.9092993,29.8756443 L48.2701242,51.2852212 L48.6898117,51.1715729 C48.1180445,49.0377085 49.3843744,46.8443606 51.5182389,46.2725934 C53.5874407,45.7181524 55.7125755,46.8920967 56.3608191,48.9094497 L56.4172183,49.1010205 L63.1786991,47.2892872 C64.2456313,47.0034036 65.3423052,47.6365686 65.6281889,48.7035008 L65.8867491,49.6684607 L68.3994681,48.9954137 L68.3967313,48.9623559 C68.2325975,46.9571742 68.4044226,44.8901249 68.9550025,42.8353327 C70.7624965,36.0896731 76.1711407,31.270604 82.5583352,29.8922842 L82.904681,29.8211102 C79.9941673,26.2959257 76.4600889,23.3046682 72.4713399,21.0161776 L70.64464,27.8355012 C69.6038533,31.7197701 64.2492743,36.5452424 56.4476865,34.4548132 C48.6460987,32.3643841 46.4201024,25.5138268 47.4624201,21.6238441 L48.8917811,16.2874254 Z M63.731902,4.4099362 L63.5165479,4.41550401 L55.0942628,4.93827346 C53.8658356,5.01452168 52.8103005,5.83717305 52.4208724,7.00393672 L52.3675156,7.18148182 L48.428346,21.8826632 C47.2601689,26.2423593 50.4300412,31.8071139 56.7065055,33.4888874 C62.8765482,35.1421453 68.3269186,32.0394386 69.6167328,27.7935428 L69.6787141,27.5766822 L73.6178838,12.8755008 C73.9394682,11.6753316 73.5008312,10.4103689 72.5279642,9.67561408 L72.3780556,9.56945179 L65.3455275,4.90557761 C64.8652704,4.58707778 64.3049417,4.41584757 63.731902,4.4099362 Z M67.8526351,16.439211 C67.975365,16.6517855 67.9242609,16.9170208 67.7434291,17.0703094 L67.6696224,17.1222237 L57.8716634,22.7790779 C57.6590889,22.9018079 57.3938535,22.8507037 57.2405649,22.669872 L57.1886507,22.5960652 L54.3602236,17.6970857 C54.2221524,17.4579394 54.3040899,17.1521442 54.5432363,17.014073 C54.7558108,16.8913431 55.0210461,16.9424472 55.1743347,17.123279 L55.226249,17.1970857 L57.8046485,21.6631557 L67.1696224,16.2561983 C67.4087687,16.1181271 67.7145639,16.2000647 67.8526351,16.439211 Z M76.995,74.6447771 L48.7269765,82.2199 C48.2316151,82.3526317 47.9232605,82.8349133 47.9961844,83.3302563 L48.0198697,83.4446449 L49.0551459,87.3083482 C49.1878776,87.8037096 49.6701591,88.1120642 50.1655021,88.0391403 L50.2798907,88.015455 L75.2023391,81.3373039 L76.995,74.6447771 Z M50.5387098,88.9813808 C49.4717776,89.2672644 48.3751037,88.6340995 48.08922,87.5671672 L47.0539439,83.7034639 C46.7680602,82.6365317 47.4012252,81.5398578 48.4681574,81.2539742 L77.2943391,73.5293039 L78.4569777,69.1927314 L78.4963391,69.0663039 L47.4328813,77.3902709 C46.365949,77.6761545 45.2692751,77.0429895 44.9833915,75.9760573 L43.9481153,72.112354 C43.6622317,71.0454218 44.2953967,69.9487479 45.3623289,69.6628643 L75.2298141,61.6607019 L74.9360395,61.4250143 C71.5439829,58.6444988 69.270199,54.6967075 68.5678262,50.3664989 L68.5124473,50.0012737 L66.1455681,50.6343865 L66.6634651,52.5672041 C66.9493487,53.6341363 66.3161837,54.7308102 65.2492515,55.0166938 L43.9988833,60.7107128 C42.9319511,60.9965964 41.8352772,60.3634314 41.5493936,59.2964992 L41.0314967,57.3636817 L24.6110164,61.7645714 C24.115655,61.897303 23.8073005,62.3795846 23.8802244,62.8749276 L23.9039096,62.9893162 L29.3328972,83.2528193 C31.2833508,84.8719 33.3983486,86.2996247 35.6490947,87.5071974 L35.462834,86.8092925 C35.1769503,85.7423603 35.8101153,84.6456864 36.8770475,84.3598027 L40.7407508,83.3245266 C41.807683,83.0386429 42.9043569,83.6718079 43.1902406,84.7387401 L44.2255167,88.6024434 C44.4349404,89.3840232 44.1511773,90.1815633 43.5649942,90.6646454 C46.7580945,91.5349879 50.1191382,92 53.5887912,92 C56.1022249,92 58.5586644,91.7559791 60.935711,91.2903361 L61.8460305,91.1003544 L62.4207891,90.9682844 L62.9806805,90.8304892 L63.2976175,90.7484483 C63.7327752,90.633788 64.1648791,90.5116032 64.5937817,90.3820416 L65.3319613,90.1507637 L65.7235905,90.0212636 L66.2576959,89.8369366 L66.8472051,89.6230028 L66.8472051,89.6230028 L67.4321371,89.3996656 L67.9208764,89.2044546 L68.4685713,88.9762212 C68.8734127,88.803772 69.2746492,88.6244993 69.6721365,88.4385476 L70.1693112,88.201533 L70.645868,87.9659244 L71.1488608,87.7081132 L71.6714648,87.4300922 L71.6714648,87.4300922 L72.360231,87.0474347 L72.8624341,86.7564548 L73.3405806,86.4697598 L73.9259453,86.1055898 L73.9259453,86.1055898 L74.9033391,82.4523039 L50.5387098,88.9813808 Z" id="线框" fill="#D9D9D9"></path>
            </g>
        </g>
    </g>
</svg>