<?xml version="1.0" encoding="UTF-8"?>
<svg width="20px" height="20px" viewBox="0 0 20 20" version="1.1" xmlns="http://www.w3.org/2000/svg" xmlns:xlink="http://www.w3.org/1999/xlink">
    <title>切片</title>
    <g id="鸿运-汽车行驶记录仪流量监控管理平台" stroke="none" stroke-width="1" fill="none" fill-rule="evenodd">
        <g id="1.1-SIM卡管理" transform="translate(-22.000000, -78.000000)">
            <g id="导航栏/SIM卡管理" transform="translate(-0.000972, 56.000000)">
                <g id="标签/SIM卡管理" transform="translate(0.000000, 12.000000)">
                    <g id="Icon/面型/20×20/SIM卡" transform="translate(22.000000, 10.000000)">
                        <rect id="透明层" x="0" y="0" width="20" height="20"></rect>
                        <path d="M11.1715729,2 C11.7020059,2 12.2107137,2.21071368 12.5857864,2.58578644 L15.4142136,5.41421356 C15.7892863,5.78928632 16,6.29799415 16,6.82842712 L16,17 C16,17.5522847 15.5522847,18 15,18 L5,18 C4.44771525,18 4,17.5522847 4,17 L4,3 C4,2.44771525 4.44771525,2 5,2 L11.1715729,2 Z M13.5,14 L12.5,14 C12.2545401,14 12.0503916,14.1768752 12.0080557,14.4101244 L12,14.5 L12,15.5 C12,15.7454599 12.1768752,15.9496084 12.4101244,15.9919443 L12.5,16 L13.5,16 C13.7454599,16 13.9496084,15.8231248 13.9919443,15.5898756 L14,15.5 L14,14.5 C14,14.2545401 13.8231248,14.0503916 13.5898756,14.0080557 L13.5,14 Z M7.5,14 L6.5,14 C6.25454011,14 6.05039163,14.1768752 6.00805567,14.4101244 L6,14.5 L6,15.5 C6,15.7454599 6.17687516,15.9496084 6.41012437,15.9919443 L6.5,16 L7.5,16 C7.74545989,16 7.94960837,15.8231248 7.99194433,15.5898756 L8,15.5 L8,14.5 C8,14.2545401 7.82312484,14.0503916 7.58987563,14.0080557 L7.5,14 Z M10.5,8 L6.5,8 C6.25454011,8 6.05039163,8.17687516 6.00805567,8.41012437 L6,8.5 L6,9.5 C6,9.74545989 6.17687516,9.94960837 6.41012437,9.99194433 L6.5,10 L9,10 L9,15.5 C9,15.7454599 9.17687516,15.9496084 9.41012437,15.9919443 L9.5,16 L10.5,16 C10.7454599,16 10.9496084,15.8231248 10.9919443,15.5898756 L11,15.5 L11,8.5 C11,8.25454011 10.8231248,8.05039163 10.5898756,8.00805567 L10.5,8 Z M13.5,11 L12.5,11 C12.2545401,11 12.0503916,11.1768752 12.0080557,11.4101244 L12,11.5 L12,12.5 C12,12.7454599 12.1768752,12.9496084 12.4101244,12.9919443 L12.5,13 L13.5,13 C13.7454599,13 13.9496084,12.8231248 13.9919443,12.5898756 L14,12.5 L14,11.5 C14,11.2545401 13.8231248,11.0503916 13.5898756,11.0080557 L13.5,11 Z M7.5,11 L6.5,11 C6.25454011,11 6.05039163,11.1768752 6.00805567,11.4101244 L6,11.5 L6,12.5 C6,12.7454599 6.17687516,12.9496084 6.41012437,12.9919443 L6.5,13 L7.5,13 C7.74545989,13 7.94960837,12.8231248 7.99194433,12.5898756 L8,12.5 L8,11.5 C8,11.2545401 7.82312484,11.0503916 7.58987563,11.0080557 L7.5,11 Z M13.5,8 L12.5,8 C12.2545401,8 12.0503916,8.17687516 12.0080557,8.41012437 L12,8.5 L12,9.5 C12,9.74545989 12.1768752,9.94960837 12.4101244,9.99194433 L12.5,10 L13.5,10 C13.7454599,10 13.9496084,9.82312484 13.9919443,9.58987563 L14,9.5 L14,8.5 C14,8.25454011 13.8231248,8.05039163 13.5898756,8.00805567 L13.5,8 Z" id="Icon" fill="#0471E3"></path>
                    </g>
                </g>
            </g>
        </g>
    </g>
</svg>